<svg width="83" height="12" viewBox="0 0 83 12" fill="none" xmlns="http://www.w3.org/2000/svg">
<path d="M5.86667 1.79528L6.78333 4.00651L6.9443 4.39482L7.3633 4.42852L9.74786 4.62032L7.92934 6.18324L7.61173 6.45621L7.7086 6.86365L8.26343 9.19734L6.22589 7.94869L5.86667 7.72855L5.50744 7.94869L3.4699 9.19734L4.02473 6.86365L4.1216 6.45621L3.80399 6.18324L1.98548 4.62032L4.37004 4.42852L4.78903 4.39482L4.95001 4.00651L5.86667 1.79528Z" fill="#FAD803" stroke="#FAD803" stroke-width="1.375"/>
<path d="M23.4668 1.79528L24.3834 4.00651L24.5444 4.39482L24.9634 4.42852L27.348 4.62032L25.5294 6.18324L25.2118 6.45621L25.3087 6.86365L25.8635 9.19734L23.826 7.94869L23.4668 7.72855L23.1075 7.94869L21.07 9.19734L21.6248 6.86365L21.7217 6.45621L21.4041 6.18324L19.5856 4.62032L21.9701 4.42852L22.3891 4.39482L22.5501 4.00651L23.4668 1.79528Z" fill="#FAD803" stroke="#FAD803" stroke-width="1.375"/>
<path d="M41.0669 1.79528L41.9835 4.00651L42.1445 4.39482L42.5635 4.42852L44.948 4.62032L43.1295 6.18324L42.8119 6.45621L42.9088 6.86365L43.4636 9.19734L41.4261 7.94869L41.0669 7.72855L40.7076 7.94869L38.6701 9.19734L39.2249 6.86365L39.3218 6.45621L39.0042 6.18324L37.1857 4.62032L39.5702 4.42852L39.9892 4.39482L40.1502 4.00651L41.0669 1.79528Z" fill="#FAD803" stroke="#FAD803" stroke-width="1.375"/>
<path d="M58.6665 1.79528L59.5831 4.00651L59.7441 4.39482L60.1631 4.42852L62.5477 4.62032L60.7291 6.18324L60.4115 6.45621L60.5084 6.86365L61.0632 9.19734L59.0257 7.94869L58.6665 7.72855L58.3072 7.94869L56.2697 9.19734L56.8245 6.86365L56.9214 6.45621L56.6038 6.18324L54.7853 4.62032L57.1698 4.42852L57.5888 4.39482L57.7498 4.00651L58.6665 1.79528Z" fill="#FAD803" stroke="#FAD803" stroke-width="1.375"/>
<path d="M76.2666 1.79528L77.1832 4.00651L77.3442 4.39482L77.7632 4.42852L80.1478 4.62032L78.3292 6.18324L78.0116 6.45621L78.1085 6.86365L78.6633 9.19734L76.6258 7.94869L76.2666 7.72855L75.9073 7.94869L73.8698 9.19734L74.4246 6.86365L74.5215 6.45621L74.2039 6.18324L72.3854 4.62032L74.7699 4.42852L75.1889 4.39482L75.3499 4.00651L76.2666 1.79528Z" fill="#FAD803" stroke="#FAD803" stroke-width="1.375"/>
</svg>
