<svg width="154" height="25" viewBox="0 0 154 25" fill="none" xmlns="http://www.w3.org/2000/svg">
<mask id="mask0" mask-type="alpha" maskUnits="userSpaceOnUse" x="0" y="0" width="155" height="25">
<path fill-rule="evenodd" clip-rule="evenodd" d="M136.422 8.63886V20.6667H133.075V4.27346H137.575L144.132 16.4855V4.27346H147.489V20.6667H143.164L136.422 8.63886ZM122.782 6.97191C122.114 6.90971 121.44 7.02317 120.829 7.30102C120.217 7.57888 119.689 8.01149 119.296 8.55597C118.646 9.75623 118.358 11.1189 118.466 12.4793C118.353 13.9692 118.718 15.4564 119.509 16.725C119.914 17.1858 120.422 17.5439 120.993 17.7696C121.564 17.9954 122.181 18.0824 122.792 18.0235C123.395 18.0702 124.001 17.9726 124.559 17.7387C125.117 17.5049 125.612 17.1416 126.001 16.6789C126.782 15.4302 127.143 13.9657 127.034 12.4977C127.117 11.1351 126.827 9.77574 126.195 8.56518C125.822 8.01796 125.308 7.5812 124.708 7.30082C124.107 7.02045 123.442 6.90683 122.782 6.97191ZM122.782 4.209C124.277 4.17593 125.761 4.46166 127.135 5.04708C127.852 5.36537 128.496 5.82587 129.029 6.40059C129.562 6.97532 129.972 7.65224 130.234 8.3902C130.726 9.78882 130.964 11.2642 130.935 12.7464C130.971 14.2346 130.678 15.7126 130.077 17.0749C129.416 18.4728 128.24 19.5617 126.794 20.1141C125.582 20.5611 124.296 20.7797 123.004 20.7588C121.328 20.7989 119.667 20.4456 118.153 19.7273C116.997 19.1439 116.066 18.1952 115.506 17.0289C114.858 15.6245 114.542 14.0897 114.584 12.5438C114.584 9.41862 115.365 7.19294 116.926 5.86674C118.264 4.75237 120.209 4.209 122.755 4.209H122.782ZM104.338 10.9597H112.453V20.6667H105.075C104.053 20.6899 103.032 20.5941 102.032 20.3812C101.293 20.1899 100.599 19.8516 99.9939 19.3866C98.2693 18.0604 97.3931 15.7764 97.3931 12.5438C97.3227 10.6959 97.7528 8.8632 98.6382 7.23899C99.2073 6.24199 100.079 5.45174 101.128 4.98261C102.435 4.46406 103.836 4.22257 105.241 4.27346H112.453V7.19294H105.583C104.434 7.07757 103.285 7.40728 102.373 8.11391C101.599 8.8691 101.202 10.2137 101.202 12.1662C101.19 13.0784 101.295 13.9885 101.516 14.8738C101.646 15.5267 101.931 16.1391 102.346 16.6605C102.702 17.0404 103.154 17.3172 103.655 17.4618C104.323 17.6382 105.012 17.7219 105.703 17.7104H108.884V13.8516H104.273V10.9229L104.338 10.9597ZM95.1982 4.27346V7.19294H90.587C89.7037 7.15822 88.8197 7.24185 87.9586 7.4416C87.4202 7.59697 86.9453 7.91955 86.6029 8.36257C86.3753 8.64804 86.2089 8.9772 86.1141 9.32959C85.9914 9.88449 85.9113 10.4479 85.8743 11.015H95.1613V13.9344H85.9112C85.898 14.4895 86.0002 15.0412 86.2113 15.5548C86.4224 16.0684 86.7379 16.5327 87.1378 16.9184C88.2236 17.5724 89.4903 17.8628 90.753 17.7473H95.1798V20.6667H90.5685C89.4698 20.6744 88.3722 20.5974 87.2854 20.4365C85.9048 20.2549 84.6419 19.5652 83.7439 18.5025C82.4207 16.7443 81.7668 14.5734 81.8994 12.378C81.8267 11.141 82.026 9.90319 82.4833 8.75131C82.9405 7.59942 83.6447 6.56143 84.5463 5.71018C85.1051 5.2053 85.7654 4.82537 86.483 4.5958C87.3844 4.35357 88.3167 4.24496 89.2497 4.27346H95.1982ZM68.4531 11.5123H73.3871C73.9937 11.5634 74.6021 11.4387 75.1394 11.1531C75.42 10.9284 75.6397 10.637 75.7783 10.3055C75.9169 9.97407 75.9699 9.61316 75.9325 9.25591C75.9768 8.84864 75.8839 8.43826 75.6684 8.08965C75.4529 7.74105 75.1272 7.47412 74.7428 7.33108C74.3 7.21982 73.8433 7.17328 73.3871 7.19294H68.4255V11.5123H68.4531ZM68.4531 14.4318V20.6667H64.9117V4.27346H72.9721C75.287 4.27346 76.9101 4.55896 77.8139 5.14838C78.4269 5.52903 78.9268 6.0664 79.2618 6.70482C79.6019 7.35514 79.7732 8.0803 79.7598 8.81385C79.846 10.1272 79.4159 11.4223 78.5609 12.424C78.0168 12.9723 77.345 13.3774 76.6058 13.6029C77.1314 13.7544 77.6272 13.9942 78.0721 14.312C78.4556 14.6172 78.77 15.0002 78.9944 15.4356C79.1778 15.793 79.3201 16.1699 79.4186 16.5592C79.5258 17.091 79.5967 17.6295 79.6307 18.1709C79.6699 19.0096 79.806 19.8409 80.0365 20.6483H76.0709C75.879 19.8841 75.7556 19.1043 75.702 18.3183C75.6399 17.5799 75.4528 16.8574 75.1486 16.1816C74.901 15.6707 74.4974 15.2515 73.9958 14.9843C73.1268 14.5991 72.1785 14.4255 71.2291 14.4778L68.4531 14.4318ZM54.7209 6.97191C54.0521 6.91064 53.3789 7.02451 52.7675 7.30229C52.1562 7.58007 51.628 8.01217 51.2348 8.55597C50.5926 9.75898 50.3078 11.1202 50.4141 12.4793C50.296 13.9696 50.6614 15.4582 51.4562 16.725C51.8588 17.1862 52.366 17.5447 52.9355 17.7706C53.505 17.9965 54.1203 18.0832 54.7302 18.0235C55.3336 18.0702 55.9395 17.9726 56.4976 17.7387C57.0558 17.5049 57.5501 17.1416 57.9396 16.6789C58.7243 15.432 59.0864 13.966 58.9725 12.4977C59.0534 11.1363 58.7667 9.77818 58.1425 8.56518C57.7687 8.01649 57.2535 7.5788 56.6512 7.29835C56.049 7.0179 55.3821 6.90511 54.7209 6.97191ZM54.6933 4.209C56.1874 4.17678 57.6712 4.46247 59.0463 5.04708C59.7592 5.36123 60.4012 5.81605 60.9337 6.38422C61.4662 6.95239 61.8782 7.62218 62.145 8.35336C62.6449 9.75025 62.8855 11.2265 62.8551 12.7095C62.8916 14.1988 62.5955 15.6775 61.9882 17.0381C61.3437 18.4464 60.1764 19.5494 58.7327 20.1141C57.5229 20.5602 56.2409 20.7788 54.9515 20.7588C53.2757 20.801 51.6137 20.4476 50.1005 19.7273C48.9527 19.1418 48.0316 18.1928 47.4813 17.0289C46.833 15.6245 46.5174 14.0897 46.5591 12.5438C46.5591 9.44318 47.3338 7.2175 48.8831 5.86674C50.248 4.75237 52.1479 4.209 54.6933 4.209ZM44.4932 10.9689V13.8976H34.6437V20.6667H31.1392V12.0925C31.1392 9.63658 31.3759 8.02181 31.8493 7.2482C32.3619 6.22107 33.2255 5.41092 34.284 4.96419C35.7212 4.44195 37.2474 4.20725 38.7753 4.27346H44.4932V7.19294H39.2272C38.1576 7.13474 37.0861 7.26887 36.0639 7.58896C35.5937 7.80452 35.2033 8.16257 34.9484 8.61224C34.6934 9.06192 34.5868 9.58038 34.6437 10.094V10.9689H44.4932Z" fill="white"/>
<path d="M151.861 4.27356C152.252 4.27319 152.635 4.38162 152.968 4.58669C153.306 4.79357 153.581 5.09003 153.761 5.44319C153.931 5.7685 154.013 6.13273 153.999 6.49955C153.984 6.86638 153.873 7.22298 153.678 7.53379C153.47 7.86906 153.173 8.14008 152.82 8.31662C152.489 8.48529 152.121 8.56704 151.75 8.55415C151.379 8.54126 151.017 8.43415 150.699 8.24294C150.356 8.03894 150.078 7.74195 149.897 7.38644C149.747 7.10194 149.665 6.78678 149.657 6.46547C149.655 6.06694 149.766 5.67607 149.977 5.33738C150.187 4.9987 150.488 4.72582 150.846 4.54985C151.157 4.37771 151.505 4.28294 151.861 4.27356ZM151.861 4.67879C151.632 4.67757 151.404 4.72176 151.192 4.8088C150.98 4.89584 150.788 5.02401 150.626 5.18588C150.464 5.34776 150.335 5.54013 150.248 5.75187C150.161 5.9636 150.117 6.1905 150.118 6.41942C150.101 6.65555 150.132 6.89272 150.211 7.11611C150.289 7.33949 150.413 7.54429 150.575 7.71772C150.736 7.89115 150.932 8.02949 151.149 8.12408C151.366 8.21867 151.601 8.26749 151.838 8.26749C152.075 8.26749 152.31 8.21867 152.527 8.12408C152.744 8.02949 152.94 7.89115 153.101 7.71772C153.263 7.54429 153.386 7.33949 153.465 7.11611C153.544 6.89272 153.575 6.65555 153.558 6.41942C153.563 6.0952 153.477 5.7761 153.309 5.49845C153.145 5.22417 152.905 5.0034 152.617 4.86298C152.38 4.74151 152.118 4.67835 151.852 4.67879H151.861ZM151.437 6.65887V7.45091H150.902V5.34189H151.879C152.115 5.32417 152.352 5.36202 152.571 5.4524C152.662 5.49672 152.738 5.56636 152.791 5.65296C152.843 5.73955 152.869 5.83941 152.866 5.94052C152.876 6.07143 152.842 6.20191 152.768 6.31065C152.694 6.41939 152.586 6.49994 152.46 6.53915C152.579 6.57981 152.681 6.65903 152.75 6.76418C152.818 6.86934 152.849 6.99437 152.839 7.11936C152.848 7.23183 152.87 7.34295 152.903 7.45091H152.304C152.277 7.34815 152.258 7.24344 152.248 7.13778C152.248 7.06682 152.233 6.99666 152.205 6.93169C152.176 6.86672 152.134 6.80833 152.082 6.76018C151.946 6.68005 151.788 6.64461 151.63 6.65887H151.437ZM151.437 6.25365H151.935C152.026 6.26412 152.118 6.24121 152.193 6.18918C152.223 6.16494 152.246 6.13372 152.26 6.09835C152.275 6.06298 152.28 6.02456 152.276 5.98656C152.279 5.95129 152.274 5.91572 152.259 5.8834C152.244 5.85108 152.222 5.82314 152.193 5.80237C152.114 5.75814 152.024 5.73887 151.935 5.74711H151.437V6.25365Z" fill="white"/>
<path d="M12.6575 2.10917C0.446981 -0.137993 -5.31704 11.8622 6.35856 15.4817L6.43234 13.1792C0.317867 7.24819 6.128 1.30793 12.6575 2.10917Z" fill="white"/>
<path d="M21.9631 13.9436C27.1922 2.85515 17.0476 -5.62699 10.5181 4.59578L12.7407 5.24967C20.0356 0.957948 24.3056 7.89285 21.9631 13.9436Z" fill="white"/>
<path d="M19.9802 10.6559L19.5006 10.3428L18.6799 11.7242C24.2133 19.2209 18.0158 23.8902 11.9567 22.4627L11.8184 22.564C22.3412 26.5887 29.8574 16.9738 19.9802 10.6559Z" fill="white"/>
<path d="M14.1242 18.3275C6.87533 25.1611 1.10208 18.4749 2.71601 11.8807C-0.972965 23.4665 10.1401 30.4659 15.3323 19.5524L15.5813 19.0367L14.1242 18.3275Z" fill="white"/>
</mask>
<g mask="url(#mask0)">
<rect x="-8.30029" y="-8.28882" width="169.693" height="41.4436" fill="#286CBC"/>
</g>
</svg>
