<svg width="465" height="201" viewBox="0 0 465 201" fill="none" xmlns="http://www.w3.org/2000/svg">
<path opacity="0.1" d="M98.8511 200.149C126.741 200.149 149.351 196.293 149.351 191.537C149.351 186.781 126.741 182.925 98.8511 182.925C70.9607 182.925 48.3511 186.781 48.3511 191.537C48.3511 196.293 70.9607 200.149 98.8511 200.149Z" fill="#286CBC"/>
<path opacity="0.1" d="M167.309 10.5387C148.849 9.89226 131.788 9.10895 114.998 2.51221C98.2091 -4.08453 84.8674 13.2512 66.8487 9.75665C55.2593 7.50868 56.0642 3.47963 39.6449 3.47971C27.3738 5.8527 25.7043 9.75665 16.7591 23.321C15.5839 30.6103 15.9489 30.684 19.1664 37.5088C21.4027 42.2471 22.4995 42.901 25.2436 47.4402C34.7906 63.2308 28.5025 80.0671 18.1596 95.4854C13.3105 102.717 7.67702 109.625 3.9318 117.316C0.186579 125.006 -1.54484 133.848 1.73259 141.715C4.97863 149.506 12.7172 155.347 21.1005 159.459C38.1265 167.813 58.1818 170.202 77.7523 171.559C121.06 174.554 164.597 173.258 208.019 171.957C224.09 171.478 240.229 170.99 256.037 168.477C264.816 167.08 273.879 164.864 280.254 159.514C288.343 152.723 290.348 141.227 284.926 132.714C275.832 118.43 250.697 114.883 244.333 99.5572C240.836 91.1193 244.427 81.7235 249.513 73.9003C260.421 57.1141 301.961 53.3825 302.923 34.1982C303.585 21.0221 300.15 13.4775 286.561 7.24146C272.319 0.705322 233.02 -0.27987 222.517 10.5387C211.692 21.666 183.611 11.1129 167.309 10.5387Z" fill="#286CBC"/>
<path d="M151.274 82.6072L142.453 76.6271L146.902 69.9665L123.604 68.0986L115.233 74.6087L104.753 68.701L96.013 69.758L95.9094 67.4413C95.8012 65.0261 95.5598 62.6188 95.1865 60.2304C95.224 59.5064 95.2499 58.6753 95.247 57.7718C95.247 53.9637 94.7344 48.9161 92.4824 45.551L93.0007 40.8654L88.7962 35.87C89.4714 34.5174 90.2413 33.2149 91.1001 31.972C91.2441 31.7635 91.3881 31.5608 91.5436 31.3639C97.0008 30.9672 101.306 26.4553 101.306 20.9386C101.306 20.6838 101.306 20.4289 101.277 20.177C101.277 20.0756 101.257 19.9714 101.246 19.87C101.778 20.1596 102.317 20.4492 102.855 20.7388C102.956 20.8836 103.071 21.0284 103.198 21.1992L103.224 21.2311L103.385 21.4309L103.437 21.4917C103.495 21.5612 103.555 21.6278 103.616 21.6973L103.656 21.7437C103.809 21.9145 103.97 22.0883 104.143 22.2591C104.163 22.276 104.183 22.2944 104.2 22.3142L104.416 22.5169L104.477 22.5719C104.661 22.737 104.857 22.8962 105.053 23.0468L105.116 23.0932L105.364 23.264L105.444 23.3161C105.539 23.3741 105.637 23.4349 105.732 23.4899L105.767 23.5102C105.879 23.571 105.994 23.6289 106.11 23.6839L106.167 23.7071C106.265 23.7496 106.361 23.7901 106.455 23.8287L106.544 23.8606C106.645 23.8953 106.743 23.9272 106.847 23.9561L106.91 23.9735C107.037 24.0054 107.164 24.0314 107.293 24.0517H107.308C107.43 24.0716 107.553 24.0841 107.676 24.0894H107.76C107.87 24.0952 107.981 24.0952 108.091 24.0894H108.163C108.301 24.0814 108.439 24.0649 108.575 24.0401C109.219 23.9549 109.838 23.7318 110.389 23.3857C110.529 23.2913 110.654 23.1749 110.758 23.041C111.334 22.2823 110.7 21.4512 110.7 21.4512C110.475 20.9125 109.018 20.5332 109.018 20.5332C109.018 20.5332 104.411 18.5987 104.411 17.0581C104.411 15.5174 103.259 7.5247 91.3679 5.69738C91.3679 5.69738 83.6327 5.26009 81.4585 9.42442L81.4124 9.91094C80.7731 10.3135 80.2432 11.1214 79.6125 11.3589C79.3401 11.4177 79.0773 11.5153 78.8321 11.6485V11.5935C78.7593 11.6575 78.6996 11.7352 78.6564 11.8222C78.521 12.0933 78.4397 12.3885 78.4174 12.691C78.3525 13.0606 78.2249 13.4162 78.0402 13.7422C77.9886 13.8349 77.9309 13.9239 77.8674 14.0087L77.8184 14.0869C78.1528 14.1131 78.4885 14.0584 78.7975 13.9276C78.7488 14.3241 78.6521 14.7131 78.5096 15.0859C78.6926 15.0919 78.8736 15.0448 79.0308 14.9504C79.188 14.8559 79.315 14.718 79.3965 14.5531V14.5299L79.434 14.4778C79.5064 14.3437 79.5662 14.2032 79.6125 14.0579L79.5808 14.0926C79.6384 13.9044 79.6903 13.7133 79.7536 13.5279C79.7827 13.4235 79.8305 13.3254 79.8947 13.2383C79.9716 13.1604 80.0656 13.1018 80.1691 13.067C80.2727 13.0323 80.3829 13.0226 80.4909 13.0385L80.3728 15.5493H80.4246C80.3553 15.7319 80.2705 15.9083 80.1712 16.0763C79.7623 16.7424 79.0193 17.1971 78.7457 17.9268C78.6277 18.2788 78.5827 18.6513 78.6132 19.0215C78.6132 19.2387 78.6392 19.4588 78.6564 19.676V19.6586C78.6968 20.2378 78.7083 20.788 78.3973 21.2543C78.1841 21.5728 77.8415 21.8132 77.7234 22.1752C77.6907 22.276 77.6761 22.3819 77.6802 22.4879C77.7033 22.8053 77.7692 23.118 77.876 23.4175C77.8773 23.4118 77.8773 23.4059 77.876 23.4001C77.9478 23.6205 77.9646 23.8552 77.925 24.0836C77.7954 24.6627 77.0956 25.1464 77.1301 25.6995C77.1282 25.7722 77.1389 25.8448 77.1618 25.9138C77.2965 26.184 77.5296 26.3914 77.8127 26.493C78.2567 26.7469 78.7666 26.8599 79.2756 26.8173C79.4664 26.7827 79.6508 26.7192 79.8228 26.6291C79.6212 27.0953 79.4138 27.5558 79.2036 27.9931C79.1719 28.0626 79.1374 28.1321 79.1028 28.2016C79.1028 28.2016 77.3231 27.0055 76.3123 29.4439C76.0172 29.9506 75.8061 30.5023 75.6874 31.0772C75.6367 31.3072 75.5654 31.5321 75.4743 31.7491C75.0255 32.513 74.3539 33.1196 73.5505 33.4866C71.4886 34.4365 63.1602 44.8821 63.0133 47.5868C62.9413 48.6427 62.7637 49.6885 62.4834 50.7086C61.8278 53.1109 61.6594 55.6213 61.9881 58.0903C62.091 58.8883 62.2616 59.676 62.4978 60.4447C63.3819 63.1466 63.9723 68.1884 63.9723 68.1884L64.9284 76.9399C64.8929 78.1478 64.9449 79.3566 65.0839 80.5569C64.1077 81.6776 60.1882 86.3487 61.6857 87.62C62.8377 88.622 64.8535 88.457 65.9853 88.2514C65.0321 90.6231 63.5317 94.7469 63.333 97.5791C63.045 101.769 63.8254 107.321 65.0609 109.452C66.2963 111.584 70.4144 117.051 70.4144 117.051C70.4144 117.051 70.2215 124.552 71.6931 127.277C73.1646 130.002 73.7579 135.655 73.7579 135.655C73.7579 135.655 75.1316 140.427 74.4433 142.182C73.755 143.937 75.719 145.397 73.6571 146.564C71.5951 147.731 68.9573 174.034 68.9573 174.034C68.9573 174.034 67.8946 191.274 68.9573 192.151C69.0141 192.193 69.0749 192.229 69.1387 192.258V198.05C69.1387 198.05 68.4014 199.266 71.3993 199.513C73.4526 199.678 79.2727 200.051 82.7256 200.268L85.4009 200.436C85.4009 200.436 91.7365 201.705 94.5357 200.436C97.3348 199.168 102.297 199.197 101.56 195.846C101.462 195.39 101.331 194.942 101.168 194.505C100.359 192.426 98.985 192.189 96.4536 191.61C96.3068 191.578 96.1657 191.549 96.0361 191.526C93.3694 191.059 92.4939 192.307 90.9993 190.683C89.7005 189.278 85.5651 187.706 84.1569 187.208C84.1914 187.104 84.2346 187.002 84.2692 186.895C83.8704 186.827 83.4995 186.645 83.2008 186.371L87.0165 186.614L89.2887 186.756C89.2887 186.756 94.6739 187.836 97.0641 186.756C99.4544 185.676 103.659 185.705 103.031 182.858C102.948 182.47 102.838 182.089 102.7 181.717C102.012 179.951 100.842 179.757 98.6912 179.267C98.5674 179.241 98.4522 179.215 98.337 179.195C96.0706 178.798 95.3276 179.858 94.0576 178.479C92.9691 177.304 89.5335 175.986 88.298 175.537C88.298 174.894 87.4341 173.979 86.8898 173.061C86.2505 171.99 87.4312 168.24 87.4312 168.24L88.1051 152.68C88.3617 152.565 88.6331 152.487 88.9114 152.448C88.9114 152.448 91.9583 149.523 91.27 146.407C91.1297 145.465 91.0566 144.513 91.0511 143.561C92.0533 142.625 93.4327 141.244 93.8244 140.392C94.4637 139.005 93.8244 132.284 93.8244 132.284V106.583L98.9216 107.101L103.547 107.579L104.955 107.724L109.58 108.193L120.209 109.273L129.787 107.448L133.931 106.661L142.453 105.039V84.0725L151.274 82.6072ZM81.1187 13.1312L80.5254 13.0675C80.7213 13.0762 80.9286 13.1138 81.1187 13.1312Z" fill="url(#paint0_linear)"/>
<path d="M130.599 96.2209C127.719 100.365 117.366 98.1699 117.366 98.1699L109.343 90.6202L108.263 89.598L110.075 85.729C110.075 85.729 110.651 85.8883 111.638 86.1721C116.825 87.6866 133.03 92.7371 130.599 96.2209Z" fill="#EFB7B9"/>
<path opacity="0.1" d="M111.633 86.1721C111.278 87.4115 110.308 89.2678 109.343 90.6202L108.263 89.598L110.075 85.729C110.075 85.729 110.656 85.8883 111.633 86.1721Z" fill="black"/>
<path d="M84.1165 42.5422C84.1165 42.5422 76.7211 45.8407 77.084 53.9405C77.3451 59.1589 77.9105 64.3573 78.7773 69.509C78.7773 69.509 77.2654 81.6979 83.5607 84.84C89.8559 87.9821 95.6818 90.5652 95.6818 90.5652C95.6818 90.5652 105.531 91.6309 106.755 92.0711C107.979 92.5113 111.803 85.7812 111.097 84.7328C110.392 83.6845 101.352 81.4865 100.2 79.7374C99.0482 77.9883 96.3844 76.9081 96.3844 76.9081C96.3844 76.9081 93.6342 75.2342 93.447 73.7226C93.2598 72.2109 93.9855 71.0844 94.1699 70.4212C94.3542 69.7581 94.8207 63.3552 94.8207 63.3552C94.8207 63.3552 97.9251 40.5643 84.1165 42.5422Z" fill="#DCE6F2"/>
<path opacity="0.1" d="M88.9983 69.176C88.9983 69.176 78.8528 70.8846 79.8348 74.4553C79.8348 74.4553 83.518 70.6008 88.9983 69.176Z" fill="black"/>
<path opacity="0.1" d="M89.0753 70.6211C89.0753 70.6211 83.4971 75.1995 84.5886 75.4341C85.68 75.6687 89.0753 70.6211 89.0753 70.6211Z" fill="black"/>
<path opacity="0.1" d="M91.7563 72.2167C91.7563 72.2167 90.2617 75.295 91.1804 75.0865C92.099 74.878 91.7563 72.2167 91.7563 72.2167Z" fill="black"/>
<path opacity="0.1" d="M112.008 86.4994L111.391 86.3227C111.567 85.7435 111.616 85.2744 111.472 85.0572C110.767 84.0089 101.733 81.8138 100.584 80.0618C99.4345 78.3097 96.7678 77.2324 96.7678 77.2324C96.7678 77.2324 94.0176 75.5586 93.8304 74.0469C93.6432 72.5353 94.3689 71.4087 94.5533 70.7456C94.7376 70.0824 95.2041 63.6766 95.2041 63.6766C95.2041 63.6766 98.2999 40.8887 84.4912 42.8666C84.4912 42.8666 77.0959 46.1679 77.4558 54.2678C77.717 59.4863 78.2834 64.6847 79.1521 69.8363C79.1521 69.8363 77.6402 82.0252 83.9354 85.1673C90.2307 88.3093 96.0565 90.8925 96.0565 90.8925C96.0565 90.8925 105.903 91.9553 107.129 92.3984C107.593 92.5663 108.431 91.7004 109.252 90.5102L109.718 90.9475L117.741 98.4943C117.741 98.4943 128.094 100.692 130.974 96.5482C133.408 93.0615 117.206 88.011 112.008 86.4994Z" fill="black"/>
<path d="M79.8603 12.1408C79.5784 12.1962 79.3084 12.3011 79.0626 12.4506C78.7747 12.691 78.7747 13.1022 78.7027 13.4613C78.6181 13.9608 78.4211 14.4343 78.1267 14.8455C78.4544 14.8697 78.7831 14.8151 79.0857 14.6863C79.0364 15.0826 78.9397 15.4716 78.7977 15.8446C78.9771 15.8492 79.1541 15.8017 79.3073 15.7077C79.4606 15.6137 79.5836 15.4772 79.6616 15.3147C79.814 14.9884 79.9346 14.6479 80.0216 14.2982C80.0487 14.1936 80.0956 14.0953 80.1599 14.0086C80.4248 13.693 80.9172 13.8349 81.3262 13.8754C81.6665 13.9043 82.0083 13.8411 82.3162 13.6924C82.624 13.5437 82.8867 13.3149 83.0771 13.0298C83.5119 12.3666 83.5379 10.6696 82.5011 10.4901C81.4183 10.3105 80.7444 11.8106 79.8603 12.1408Z" fill="#965D7B"/>
<g opacity="0.1">
<path opacity="0.1" d="M79.0336 12.8069C79.0595 12.665 79.0768 12.5173 79.1085 12.3754C78.8349 12.6157 78.8205 13.0241 78.7485 13.386C78.7122 13.5949 78.6553 13.7996 78.5786 13.9971C78.8054 13.6336 78.9599 13.2294 79.0336 12.8069Z" fill="black"/>
<path opacity="0.1" d="M79.126 15.1989C79.2694 14.8263 79.3662 14.4372 79.414 14.0405C79.1257 14.1626 78.8135 14.217 78.5011 14.1998C78.4102 14.4035 78.2992 14.5975 78.1699 14.779C78.4965 14.8044 78.8243 14.7508 79.126 14.6226C79.0782 15.0192 78.9814 15.4084 78.838 15.781C79.0174 15.7852 79.1942 15.7375 79.3474 15.6435C79.5005 15.5496 79.6236 15.4133 79.702 15.251C79.7737 15.1194 79.8316 14.9806 79.8748 14.8369C79.7903 14.9557 79.6774 15.0511 79.5465 15.1143C79.4156 15.1776 79.271 15.2067 79.126 15.1989Z" fill="black"/>
<path opacity="0.1" d="M81.6544 13.2296C81.2454 13.1891 80.7501 13.0472 80.4852 13.3629C80.4221 13.4502 80.3753 13.5483 80.3469 13.6524C80.321 13.7277 80.298 13.8059 80.2778 13.8841C80.5514 13.6669 80.9949 13.7828 81.3664 13.8204C81.7066 13.8483 82.0481 13.7847 82.3558 13.6361C82.6635 13.4875 82.9263 13.2593 83.1173 12.9748C83.2046 12.8342 83.2697 12.6808 83.3103 12.5201C83.113 12.7656 82.8589 12.9587 82.5702 13.0824C82.2815 13.2061 81.967 13.2566 81.6544 13.2296Z" fill="black"/>
</g>
<path d="M88.5282 36.0582L92.9199 41.3693L92.3468 46.7297L87.0393 38.375L88.5282 36.0582Z" fill="#DCE6F2"/>
<path opacity="0.1" d="M92.917 41.3693L92.3785 46.4111L92.3439 46.7297L87.5548 39.1887L87.0393 38.375L87.1891 38.1404L88.5253 36.0582L88.8219 36.4173L92.917 41.3693Z" fill="black"/>
<path d="M95.198 28.8676C93.712 29.2962 92.2923 30.7673 91.0568 32.5541C90.2218 33.7869 89.475 35.0779 88.8221 36.4173C88.416 37.2339 88.0589 38.0187 87.7623 38.7022L87.555 39.1887C87.0539 40.3789 86.7746 41.1753 86.7746 41.1753C86.7746 41.1753 75.3993 32.5744 77.1992 31.9952C77.804 31.8012 78.5988 30.498 79.385 28.856L79.4829 28.6475C79.9811 27.5934 80.4707 26.4177 80.9055 25.3114C81.7954 23.0381 82.4548 21.0631 82.4548 21.0631C82.4548 21.0631 99.7337 27.5644 95.198 28.8676Z" fill="#EFB7B9"/>
<path d="M102.003 20.5795C102.003 20.5795 104.629 25.3577 108.157 24.7062C111.685 24.0546 110.233 22.1404 110.233 22.1404L102.003 20.5795Z" fill="#444053"/>
<path d="M96.9145 185.98C94.5876 187.049 89.3262 185.98 89.3262 185.98L87.1088 185.841C84.229 185.656 79.4082 185.343 77.7033 185.204C75.2152 184.998 75.8257 183.973 75.8257 183.973V177.779L87.8978 174.703C87.8978 174.703 92.6697 176.345 93.9771 177.779C95.2183 179.146 95.944 178.094 98.1586 178.488C98.268 178.508 98.3832 178.532 98.5042 178.561C100.606 179.044 101.747 179.235 102.421 180.987C102.556 181.355 102.665 181.733 102.746 182.117C103.368 184.937 99.2385 184.917 96.9145 185.98Z" fill="#A36468"/>
<path opacity="0.1" d="M102.421 180.987C101.988 181.259 101.533 181.494 101.061 181.688C99.4775 182.415 97.9714 183.301 96.3702 183.988C94.7691 184.674 93.044 185.163 91.3104 185.033C90.4033 184.966 89.476 184.743 88.6091 185.004C88.0731 185.212 87.5682 185.494 87.1088 185.841C84.229 185.656 79.4082 185.343 77.7033 185.204C75.2152 184.998 75.8257 183.973 75.8257 183.973V183.249C75.915 183.249 76.0158 183.223 76.1309 183.214C76.7269 183.205 77.3204 183.294 77.8876 183.478C79.1375 183.82 80.3815 184.155 81.6314 184.491C81.7342 184.101 81.9148 183.736 82.1624 183.419C82.4099 183.101 82.7192 182.837 83.0713 182.644C83.7846 182.263 84.5853 182.078 85.3924 182.108C87.3305 182.134 89.1649 183.058 91.1002 183.151C91.6412 183.201 92.1859 183.109 92.6812 182.884C92.9461 182.751 93.1794 182.557 93.4386 182.409C93.8534 182.207 94.2916 182.059 94.7431 181.966C96.0122 181.648 97.2582 181.244 98.4725 180.756C98.8181 180.62 99.2212 180.373 99.1751 180.003C99.1147 179.51 98.3458 179.453 98.1442 179.001C98.1086 178.919 98.0922 178.831 98.0962 178.742C98.1002 178.653 98.1245 178.566 98.1672 178.488C98.2766 178.508 98.3918 178.532 98.5128 178.561C100.606 179.044 101.747 179.235 102.421 180.987Z" fill="black"/>
<path d="M94.4549 199.533C91.7191 200.79 85.5275 199.533 85.5275 199.533L82.9213 199.379C79.5461 199.162 73.8614 198.8 71.8542 198.629C68.9254 198.386 69.6453 197.181 69.6453 197.181V189.881L83.8514 186.261C83.8514 186.261 89.4671 188.192 91.0049 189.881C92.4649 191.488 93.3087 190.251 95.9265 190.715C96.0561 190.738 96.1914 190.767 96.3325 190.799C98.8063 191.378 100.148 191.595 100.94 193.657C101.101 194.09 101.229 194.534 101.323 194.986C102.037 198.305 97.1907 198.279 94.4549 199.533Z" fill="#A36468"/>
<path opacity="0.1" d="M100.934 193.657C100.426 193.976 99.8909 194.253 99.3361 194.482C97.4729 195.337 95.6989 196.379 93.8156 197.187C91.9322 197.995 89.9019 198.568 87.8601 198.418C86.7946 198.34 85.7031 198.07 84.6923 198.383C84.059 198.631 83.4629 198.966 82.9213 199.379C79.5461 199.162 73.8614 198.8 71.8542 198.629C68.9254 198.386 69.6453 197.181 69.6453 197.181V196.33C69.7646 196.31 69.8847 196.297 70.0053 196.289C70.7069 196.276 71.4057 196.381 72.073 196.599L76.4762 197.792C76.5989 197.332 76.8136 196.902 77.1072 196.528C77.4009 196.154 77.7672 195.844 78.184 195.617C79.0233 195.167 79.9664 194.95 80.9169 194.986C83.1977 195.018 85.3547 196.104 87.6326 196.214C88.267 196.272 88.9056 196.165 89.4872 195.904C89.8011 195.745 90.0632 195.516 90.3799 195.345C90.867 195.105 91.383 194.93 91.9149 194.824C93.4 194.447 94.8585 193.971 96.2807 193.399C96.6867 193.237 97.1619 192.947 97.1072 192.513C97.0352 191.934 96.1309 191.864 95.8919 191.331C95.8516 191.235 95.8333 191.131 95.8383 191.027C95.8432 190.923 95.8714 190.821 95.9207 190.729C96.0503 190.752 96.1856 190.781 96.3267 190.813C98.8005 191.369 100.142 191.595 100.934 193.657Z" fill="black"/>
<path d="M88.2635 149.436L87.4946 167.631C87.4946 167.631 86.3427 171.347 86.9676 172.41C87.5925 173.472 88.6466 174.532 88.2635 175.161C87.8805 175.789 83.2728 182.583 81.784 179.977C80.2951 177.37 78.8264 166.076 78.8264 166.076L80.2001 152.127L88.2635 149.436Z" fill="#444053"/>
<path d="M91.5983 104.104L93.7351 106.976V131.962C93.7351 131.962 94.36 138.623 93.7351 139.999C93.1102 141.374 89.9424 144.125 89.9424 144.125L87.2786 130.37L87.8545 115.818L91.5983 104.104Z" fill="#444053"/>
<path opacity="0.1" d="M88.2635 149.436L87.4946 167.631C87.4946 167.631 86.3427 171.347 86.9676 172.41C87.5925 173.472 88.6466 174.532 88.2635 175.161C87.8805 175.789 83.2728 182.583 81.784 179.977C80.2951 177.37 78.8264 166.076 78.8264 166.076L80.2001 152.127L88.2635 149.436Z" fill="black"/>
<path opacity="0.1" d="M91.5983 104.104L93.7351 106.976V131.962C93.7351 131.962 94.36 138.623 93.7351 139.999C93.1102 141.374 89.9424 144.125 89.9424 144.125L87.2786 130.37L87.8545 115.818L91.5983 104.104Z" fill="black"/>
<path d="M93.7353 93.4467V106.962L91.3365 117.483C91.3365 117.483 90.5676 142.871 91.2385 145.958C91.9095 149.045 88.9347 151.944 88.9347 151.944C88.9347 151.944 87.2068 152.138 87.2068 153.488C87.2068 154.837 84.327 158.7 84.327 158.7L84.422 166.23C84.422 166.23 85.6719 180.324 83.7511 183.026C81.8302 185.728 84.422 186.116 84.422 186.116C82.0232 194.031 70.5039 192.198 69.4643 191.329C68.4247 190.46 69.4643 173.374 69.4643 173.374C69.4643 173.374 72.0389 147.311 74.0547 146.152C76.0706 144.994 74.1527 143.546 74.8237 141.809C75.4947 140.071 74.1527 135.342 74.1527 135.342C74.1527 135.342 73.5767 129.741 72.1368 127.039C70.6969 124.337 70.887 116.904 70.887 116.904C70.887 116.904 66.8552 111.497 65.6572 109.374C64.4592 107.252 63.6874 101.749 63.9754 97.5965C64.1713 94.7904 65.6371 90.7042 66.5673 88.3527C67.0136 87.2262 67.3362 86.4965 67.3362 86.4965L67.6097 86.5689L83.3392 90.71L93.7353 93.4467Z" fill="#444053"/>
<path opacity="0.1" d="M95.1989 28.8676C93.7129 29.2962 92.2932 30.7673 91.0578 32.5541H90.7352C88.9244 32.5554 87.1452 32.076 85.5777 31.1642C84.0101 30.2525 82.7097 28.9408 81.8078 27.3617C81.4309 26.7074 81.1276 26.013 80.9036 25.2912C81.7934 23.0179 82.4529 21.0428 82.4529 21.0428C82.4529 21.0428 99.7346 27.5645 95.1989 28.8676Z" fill="black"/>
<path d="M101.03 21.6278C101.032 23.2123 100.673 24.7763 99.98 26.1993C99.2867 27.6222 98.278 28.8662 97.0313 29.8353C95.7847 30.8044 94.3335 31.4729 92.7895 31.7892C91.2455 32.1054 89.6499 32.0611 88.1256 31.6595C86.6013 31.258 85.189 30.51 83.9975 29.4731C82.806 28.4362 81.8671 27.1381 81.253 25.6789C80.639 24.2196 80.3663 22.638 80.4559 21.0561C80.5454 19.4741 80.9949 17.9339 81.7697 16.5541C82.0818 15.9935 82.4463 15.4641 82.8582 14.973C83.5373 14.1594 84.3355 13.4544 85.2254 12.8821C86.7286 11.9216 88.4537 11.3696 90.2325 11.28C92.0112 11.1905 93.7826 11.5665 95.3736 12.3712C96.9646 13.176 98.3207 14.382 99.3096 15.8715C100.298 17.3609 100.886 19.0829 101.015 20.8691C101.021 21.1239 101.03 21.3759 101.03 21.6278Z" fill="#EFB7B9"/>
<path opacity="0.1" d="M92.3787 46.4112L92.3441 46.7297L87.555 39.2003C87.0539 40.3905 86.7746 41.1869 86.7746 41.1869C86.7746 41.1869 75.3993 32.5744 77.1992 31.9953C77.804 31.8012 78.5988 30.4981 79.385 28.8561L79.4829 28.6476C80.318 31.1497 85.1705 36.1509 87.1892 38.1549C87.4225 38.3866 87.6155 38.5777 87.7652 38.7167L88.0733 39.0063L88.2346 39.1685C88.969 39.9301 92.0676 43.2894 92.3787 46.4112Z" fill="black"/>
<path d="M95.9584 71.9589L95.4342 88.9203L95.3421 91.9407C95.3421 91.9407 89.1332 91.3615 83.3391 90.7244C78.6738 90.2118 74.2763 89.6587 73.5995 89.3344C72.7356 88.926 70.8839 88.6104 69.4238 88.4106C68.2949 88.2571 67.408 88.176 67.408 88.176C67.408 88.176 67.0768 88.2745 66.5671 88.3671C65.4555 88.5699 63.5029 88.7349 62.3654 87.7416C60.9111 86.4703 64.7326 81.8513 65.6858 80.7422L65.8961 80.5018L65.5361 77.157L64.6002 68.4838C64.6002 68.4838 64.0242 63.4883 63.1603 60.8096C62.9293 60.048 62.7626 59.2681 62.662 58.4784C62.341 56.0318 62.5055 53.5455 63.1459 51.1633C63.4194 50.151 63.5931 49.1141 63.6642 48.0675C63.8082 45.3888 71.9437 35.0359 73.9595 34.0947C74.8664 33.6695 75.5961 32.9377 76.0215 32.027C76.1619 31.7407 76.2673 31.4383 76.3354 31.1264C77.1993 27.3617 79.3851 28.856 79.3851 28.856C79.9121 31.8011 88.0706 39.597 88.0706 39.597L88.2318 39.7591C89.0411 40.5932 92.6466 44.5084 92.3903 47.8503C92.3391 49.0942 92.5238 50.3364 92.9346 51.5108C94.5941 56.7653 95.548 62.2193 95.7712 67.7279L95.9584 71.9589Z" fill="#DCE6F2"/>
<path opacity="0.1" d="M84.3985 51.8179C84.3985 51.8179 82.3827 56.7409 80.8708 57.5373C79.3589 58.3337 85.1185 59.2169 84.3985 51.8179Z" fill="black"/>
<path opacity="0.1" d="M85.9104 61.0125C85.9104 61.0125 81.3027 61.5916 81.3027 62.4604C81.3027 63.3292 85.9104 61.0125 85.9104 61.0125Z" fill="black"/>
<path opacity="0.1" d="M90.7345 66.6594C90.7345 66.6594 84.0389 80.9942 82.1671 81.4286C80.2952 81.863 90.7345 66.6594 90.7345 66.6594Z" fill="black"/>
<path opacity="0.1" d="M87.9436 40.324L82.4057 42.7449L75.7217 32.5918C75.8621 32.3055 75.9675 32.0031 76.0356 31.6912C76.8995 27.9265 79.0853 29.4208 79.0853 29.4208C79.6123 32.366 87.7708 40.1618 87.7708 40.1618L87.9436 40.324Z" fill="black"/>
<path d="M88.2317 39.7447L82.6938 42.1657L76.0098 32.0126C76.1502 31.7263 76.2556 31.4239 76.3237 31.112C77.1876 27.3473 79.3734 28.8416 79.3734 28.8416C79.9004 31.7867 88.0589 39.5826 88.0589 39.5826L88.2317 39.7447Z" fill="#DCE6F2"/>
<path opacity="0.1" d="M95.3417 91.9407C95.3417 91.9407 89.1328 91.3615 83.3387 90.7244L93.7347 93.4611V96.6466C93.2797 97.0607 92.8852 97.275 92.6289 97.165C91.4309 96.6582 81.654 95.0654 81.654 95.0654C81.654 95.0654 75.975 92.1695 69.8468 88.6944C69.698 88.6115 69.5538 88.5207 69.4148 88.4222C68.7002 87.9343 68.0845 87.3142 67.6005 86.5949C66.4688 84.9471 65.9158 82.8302 65.6768 80.7538C65.5424 79.5638 65.4924 78.3658 65.5271 77.1686C65.5567 75.8112 65.6799 74.4575 65.8957 73.1173C65.303 67.9261 65.0145 62.7045 65.0317 57.4793C65.1037 49.3707 72.6632 46.4748 72.6632 46.4748C86.5583 45.244 82.2501 67.8322 82.2501 67.8322C82.2501 67.8322 81.4466 74.2032 81.2278 74.8548C81.0089 75.5064 80.2227 76.5924 80.3293 78.1127C80.4358 79.6331 83.091 81.4517 83.091 81.4517C83.091 81.4517 85.6828 82.6738 86.7512 84.4837C87.5288 85.8188 92.58 87.6287 95.4338 88.9203L95.3417 91.9407Z" fill="black"/>
<path opacity="0.1" d="M99.9953 15.1989C100.001 15.6759 99.9024 16.1483 99.7074 16.5832C99.5597 16.938 99.3885 17.2825 99.1948 17.6141C98.8917 18.2242 98.4615 18.7615 97.9334 19.1895C97.2682 19.6673 96.4273 19.8006 95.6296 19.9946C94.8319 20.1886 94.0025 20.4985 93.5475 21.1819C93.3009 21.6213 93.1359 22.1021 93.0608 22.6009C92.9845 23.0993 92.7866 23.5709 92.4848 23.9736C92.3277 24.1702 92.11 24.3087 91.8661 24.3674C91.6221 24.4261 91.3657 24.4017 91.1371 24.2979C90.8962 24.1346 90.7136 23.8982 90.6158 23.6232C90.2875 22.8789 90.204 22.0536 90.0715 21.2514C89.9391 20.4492 89.7519 19.6239 89.2623 18.9781C88.7727 18.3323 87.9059 17.9066 87.137 18.1586C86.8797 18.2582 86.645 18.4091 86.447 18.6022C86.2491 18.7952 86.092 19.0265 85.9851 19.2822C85.7723 19.794 85.6261 20.3313 85.5502 20.8807C85.1931 22.8461 84.7717 24.7999 84.286 26.7421C84.2712 26.8217 84.2387 26.8969 84.191 26.9622C84.1144 27.0389 84.0111 27.0825 83.903 27.0838C83.2579 27.1707 82.6388 26.716 81.9879 26.7652C81.9209 26.7697 81.8543 26.7804 81.7892 26.7971C80.7369 24.9581 80.2723 22.8382 80.4583 20.7247C80.6442 18.6113 81.4718 16.6064 82.8288 14.9817L82.8807 14.9673C83.3136 14.8127 83.707 14.5635 84.0326 14.2375C84.4483 13.8192 84.8333 13.371 85.1845 12.8967L85.4149 12.6071C86.0768 11.8052 86.8308 11.0849 87.6611 10.4612C87.8878 10.2745 88.1478 10.133 88.4272 10.0442C88.6663 9.99736 88.9113 9.98954 89.1529 10.021C90.1474 10.1411 91.1501 10.1789 92.1508 10.134C92.848 10.0238 93.5508 9.95221 94.2559 9.91968C96.0788 9.9718 97.6339 11.2663 98.7858 12.6853C99.405 13.4122 99.9579 14.2491 99.9953 15.1989Z" fill="black"/>
<path d="M80.4242 16.8294C80.0239 17.4896 79.3011 17.9385 79.0303 18.6625C78.6329 19.7137 79.3039 21.0227 78.6877 21.9609C78.4832 22.2766 78.1462 22.5112 78.0311 22.8731C77.8352 23.4842 78.3709 24.1358 78.2326 24.7642C78.0944 25.3926 77.2708 25.9225 77.4897 26.5365C77.619 26.8042 77.8459 27.0116 78.1232 27.1157C78.5596 27.3674 79.0618 27.4795 79.5631 27.4371C80.3493 27.3068 80.9339 26.5307 81.7316 26.4728C82.3796 26.4264 82.9987 26.8782 83.6438 26.7942C83.7519 26.7904 83.8547 26.746 83.9318 26.6697C83.9807 26.6052 84.0133 26.5296 84.0268 26.4496C84.5106 24.5093 84.933 22.5556 85.2939 20.5883C85.3675 20.0386 85.5127 19.5012 85.7259 18.9897C85.8336 18.7346 85.991 18.5037 86.1889 18.3108C86.3867 18.1178 86.621 17.9666 86.8778 17.8661C87.6467 17.6171 88.5107 18.0399 89.0031 18.6856C89.4956 19.3314 89.6828 20.1568 89.8152 20.9589C89.9477 21.7611 90.0312 22.5864 90.3566 23.3307C90.4555 23.6067 90.639 23.844 90.8808 24.0083C91.3127 24.2603 91.8944 24.0605 92.2256 23.684C92.529 23.2812 92.727 22.8082 92.8016 22.3084C92.8767 21.8105 93.0416 21.3306 93.2883 20.8923C93.7433 20.2089 94.5755 19.899 95.3704 19.705C96.1652 19.511 97.0032 19.3749 97.6742 18.897C98.2016 18.4695 98.6317 17.9333 98.9356 17.3246C99.3618 16.5774 99.7592 15.7666 99.7246 14.9065C99.6872 13.9682 99.1343 13.1313 98.5439 12.4015C97.392 10.9825 95.834 9.68802 94.0111 9.63879C93.3058 9.66845 92.6029 9.74001 91.906 9.85309C90.9052 9.89834 89.9024 9.8596 88.9081 9.73725C88.6663 9.70817 88.4215 9.71696 88.1824 9.76332C87.9027 9.84922 87.6431 9.99106 87.4192 10.1803C86.5881 10.803 85.8331 11.5223 85.1701 12.3233C84.7426 12.8933 84.2789 13.435 83.782 13.945C83.4563 14.2715 83.063 14.5217 82.6301 14.6777C82.3421 14.7588 82.0541 14.7009 81.7806 14.7906C80.931 15.06 80.8187 16.1749 80.4242 16.8294Z" fill="#965D7B"/>
<path opacity="0.1" d="M108.157 24.7033C105.853 25.129 103.944 23.2553 102.887 21.8884C102.562 21.4733 102.267 21.0359 102.003 20.5795L109.911 22.0796L110.23 22.1404C110.23 22.1404 111.685 24.0546 108.157 24.7033Z" fill="black"/>
<g opacity="0.1">
<path opacity="0.1" d="M78.2335 23.9359C78.2657 23.5572 78.2085 23.1761 78.0664 22.8239C78.0664 22.8528 78.0405 22.8818 78.0319 22.9107C77.908 23.2988 78.0751 23.7013 78.1816 24.1038C78.2045 24.0498 78.2219 23.9935 78.2335 23.9359Z" fill="black"/>
<path opacity="0.1" d="M78.9188 19.1953C78.8891 19.5958 78.8968 19.9981 78.9418 20.3971C78.9713 19.9967 78.9636 19.5943 78.9188 19.1953Z" fill="black"/>
<path opacity="0.1" d="M98.9194 16.4876C98.6163 17.0977 98.1861 17.635 97.658 18.063C96.9928 18.5408 96.1548 18.674 95.3542 18.8681C94.5536 19.0621 93.7271 19.372 93.2721 20.0554C93.0259 20.4949 92.861 20.9757 92.7854 21.4744C92.7104 21.974 92.5124 22.4469 92.2094 22.85C91.8782 23.2264 91.2965 23.4291 90.8645 23.1743C90.6228 23.01 90.4393 22.7727 90.3404 22.4967C90.015 21.7524 89.9286 20.93 89.799 20.1249C89.6694 19.3198 89.4765 18.4974 88.9869 17.8516C88.4973 17.2058 87.6305 16.7801 86.8616 17.0321C86.6045 17.1321 86.37 17.2832 86.1721 17.4762C85.9743 17.6692 85.817 17.9003 85.7097 18.1557C85.4965 18.6671 85.3513 19.2046 85.2777 19.7542C84.9187 21.7215 84.4963 23.6753 84.0106 25.6156C83.9971 25.6956 83.9645 25.7711 83.9156 25.8356C83.8385 25.912 83.7357 25.9564 83.6276 25.9602C82.9825 26.0442 82.3634 25.5924 81.7154 25.6387C80.9177 25.6966 80.3331 26.4727 79.5469 26.6002C79.0454 26.6454 78.5424 26.5331 78.107 26.2787C77.9068 26.1921 77.7272 26.0638 77.58 25.9023C77.5126 25.9993 77.468 26.1104 77.4496 26.2273C77.4311 26.3442 77.4393 26.4638 77.4735 26.577C77.6003 26.8466 77.8281 27.0548 78.107 27.1562C78.5424 27.4105 79.0454 27.5229 79.5469 27.4776C80.3331 27.3502 80.9177 26.5741 81.7154 26.5162C82.3634 26.4699 82.9825 26.9216 83.6276 26.8376C83.7357 26.8339 83.8385 26.7894 83.9156 26.7131C83.9645 26.6486 83.9971 26.573 84.0106 26.493C84.4944 24.5624 84.9168 22.6086 85.2777 20.6317C85.3513 20.0821 85.4965 19.5446 85.7097 19.0331C85.817 18.7778 85.9743 18.5467 86.1721 18.3536C86.37 18.1606 86.6045 18.0096 86.8616 17.9095C87.6305 17.6576 88.4945 18.0833 88.9869 18.7291C89.4794 19.3749 89.6666 20.2002 89.799 21.0024C89.9315 21.8045 90.015 22.6299 90.3404 23.3741C90.4393 23.6501 90.6228 23.8874 90.8645 24.0518C91.2965 24.3037 91.8782 24.1039 92.2094 23.7274C92.5124 23.3243 92.7104 22.8515 92.7854 22.3519C92.861 21.8532 93.0259 21.3724 93.2721 20.9329C93.7271 20.2494 94.5593 19.9425 95.3542 19.7455C96.149 19.5486 96.987 19.4183 97.658 18.9405C98.1861 18.5125 98.6163 17.9752 98.9194 17.3651C99.3456 16.6208 99.743 15.81 99.7084 14.9499C99.7028 14.8393 99.6912 14.7291 99.6739 14.6198C99.5349 15.2826 99.2794 15.9151 98.9194 16.4876Z" fill="black"/>
</g>
<path opacity="0.1" d="M99.7192 16.5745C100.458 17.8949 100.895 19.3637 101.001 20.8749C98.4348 19.427 96.0215 17.8371 94.8034 17.284C92.681 16.3196 84.7442 16.4644 81.7607 16.5542C82.0728 15.9936 82.4373 15.4641 82.8493 14.973C83.531 14.1588 84.3322 13.4537 85.2251 12.8822C86.4077 12.1275 87.7309 11.6232 89.1139 11.4002C90.4968 11.1772 91.9105 11.2401 93.2684 11.5852C94.6264 11.9302 95.9001 12.5501 97.0117 13.407C98.1233 14.2638 99.0495 15.3397 99.7336 16.5687L99.7192 16.5745Z" fill="black"/>
<path opacity="0.1" d="M108.877 23.4754C107.492 23.904 105.231 23.0758 102.887 21.8884C102.562 21.4733 102.267 21.0359 102.003 20.5795L109.911 22.0796C110.435 22.4386 110.567 22.9512 108.877 23.4754Z" fill="black"/>
<path d="M91.3478 6.53438C91.3478 6.53438 83.7883 6.09999 81.663 10.2267L81.3203 13.8842L80.7443 13.8205L80.6292 16.3081C80.6292 16.3081 92.1829 15.8013 94.8122 16.9944C97.4415 18.1876 105.611 24.1995 108.886 23.1859C112.16 22.1723 108.598 21.2312 108.598 21.2312C108.598 21.2312 104.091 19.3112 104.091 17.8053C104.091 16.2994 102.974 8.34433 91.3478 6.53438Z" fill="#444053"/>
<path opacity="0.1" d="M76.7678 142.121C76.7678 142.121 81.5915 146.827 83.6794 146.465C83.6794 146.465 77.7758 145.958 76.7678 142.121Z" fill="black"/>
<path opacity="0.1" d="M75.7595 144.302C75.7595 144.302 76.1915 146.723 77.3434 146.485C78.4953 146.248 75.7595 144.302 75.7595 144.302Z" fill="black"/>
<path opacity="0.1" d="M83.319 184.764C83.319 184.764 76.4708 190.121 77.6256 190.266C78.7804 190.411 83.319 184.764 83.319 184.764Z" fill="black"/>
<path d="M92.4792 78.4343L114.654 74.8057V95.9169L93.5851 94.8078L92.4792 78.4343Z" fill="#286CBC"/>
<path opacity="0.05" d="M92.4792 78.4343L114.654 74.8057V95.9169L93.5851 94.8078L92.4792 78.4343Z" fill="black"/>
<path d="M114.654 74.8057L141.246 76.8067L139.774 95.1785L114.654 95.9169V74.8057Z" fill="#286CBC"/>
<path opacity="0.1" d="M114.654 74.8057L141.246 76.8067L139.774 95.1785L114.654 95.9169V74.8057Z" fill="black"/>
<path d="M122.83 68.3622L114.654 74.8056L141.246 76.8067L145.592 70.2127L122.83 68.3622Z" fill="#286CBC"/>
<path d="M84.4507 71.3972L104.413 68.953L114.654 74.8057L92.4796 78.4342L84.4507 71.3972Z" fill="#286CBC"/>
<path d="M119.515 80.2876V109.151L109.127 108.08L104.609 107.616L103.232 107.472L98.7169 107.005L92.4792 106.362V78.4342L114.651 79.9517L119.515 80.2876Z" fill="#286CBC"/>
<path d="M141.247 76.8066V104.955L132.921 106.562L128.872 107.344L119.516 109.151V80.2875L141.247 76.8066Z" fill="#286CBC"/>
<path opacity="0.05" d="M141.247 76.8066V104.955L132.921 106.562L128.872 107.344L119.516 109.151V80.2875L141.247 76.8066Z" fill="black"/>
<path d="M84.4507 84.5098L92.4796 78.4342L119.515 80.2876L115.535 87.0293L84.4507 84.5098Z" fill="#286CBC"/>
<path opacity="0.1" d="M84.4507 84.5098L92.4796 78.4342L119.515 80.2876L115.535 87.0293L84.4507 84.5098Z" fill="white"/>
<path d="M141.247 76.8066L119.516 80.2875L126.588 86.6586L149.866 82.7317L141.247 76.8066Z" fill="#286CBC"/>
<path opacity="0.1" d="M141.247 76.8066L119.516 80.2875L126.588 86.6586L149.866 82.7317L141.247 76.8066Z" fill="white"/>
<path opacity="0.1" d="M132.921 106.562L128.872 107.344V101.329L132.664 100.368L132.921 106.562Z" fill="white"/>
<path opacity="0.1" d="M109.128 104.101V108.08L104.61 107.616V104.101H109.128Z" fill="white"/>
<path opacity="0.1" d="M103.233 105.355V107.472L98.7173 107.005V105.355H103.233Z" fill="white"/>
<path opacity="0.1" d="M116.797 101.99C113.701 105.972 103.478 103.22 103.478 103.22L95.8806 95.2509L94.8496 94.1707L96.8655 90.406C96.8655 90.406 97.4414 90.5971 98.4033 90.9331C103.495 92.7227 119.403 98.6391 116.797 101.99Z" fill="black"/>
<path d="M116.509 101.41C113.413 105.392 103.19 102.641 103.19 102.641L95.593 94.6716L94.562 93.5915L96.5779 89.8268C96.5779 89.8268 97.1538 90.0179 98.1157 90.3538C103.207 92.1435 119.115 98.0599 116.509 101.41Z" fill="#EFB7B9"/>
<path opacity="0.1" d="M98.1032 90.3538C97.6828 91.5701 96.6144 93.3714 95.5805 94.6716L94.5496 93.5915L96.5654 89.8268C96.5654 89.8268 97.1443 90.0179 98.1032 90.3538Z" fill="black"/>
<path d="M72.9518 45.3165C72.9518 45.3165 65.3923 48.2124 65.3203 56.321C65.3031 61.5461 65.5916 66.7678 66.1842 71.9589C66.1842 71.9589 64.0244 84.0494 70.144 87.5245C76.2636 90.9996 81.9512 93.8955 81.9512 93.8955C81.9512 93.8955 91.7281 95.4883 92.929 95.9951C94.1299 96.5019 98.3027 89.986 97.6548 88.9001C97.0068 87.8141 88.1053 85.1354 87.0484 83.3254C85.9915 81.5155 83.3882 80.2963 83.3882 80.2963C83.3882 80.2963 80.733 78.4747 80.6265 76.9544C80.5199 75.434 81.3032 74.3481 81.525 73.6965C81.7467 73.0449 82.5502 66.6739 82.5502 66.6739C82.5502 66.6739 86.8469 44.0712 72.9518 45.3165Z" fill="#DCE6F2"/>
<path opacity="0.1" d="M76.407 72.1616C76.407 72.1616 66.1837 73.32 66.9756 76.9399C66.9756 76.9399 70.8605 73.2881 76.407 72.1616Z" fill="black"/>
<path opacity="0.1" d="M76.4072 73.6096C76.4072 73.6096 70.6044 77.8811 71.6699 78.1707C72.7355 78.4603 76.4072 73.6096 76.4072 73.6096Z" fill="black"/>
<path opacity="0.1" d="M79 75.3472C79 75.3472 77.3441 78.3415 78.28 78.1852C79.216 78.0288 79 75.3472 79 75.3472Z" fill="black"/>
<path d="M185.443 10.3974C185.443 10.3974 174.5 9.73427 175.778 17.4548C175.778 17.4548 175.522 18.8188 176.752 19.4385C176.752 19.4385 176.772 18.8593 177.875 19.0591C178.268 19.1256 178.667 19.145 179.064 19.117C179.603 19.0809 180.115 18.8683 180.522 18.5118C180.522 18.5118 183.6 17.2347 184.798 12.1726C184.798 12.1726 185.685 11.0664 185.662 10.7826L183.813 11.579C183.813 11.579 184.444 12.9198 183.946 14.0347C183.946 14.0347 183.888 11.6282 183.531 11.6832C183.459 11.6832 182.572 12.1495 182.572 12.1495C182.572 12.1495 183.658 14.4836 182.837 16.1835C182.837 16.1835 183.148 13.3049 182.232 12.3174L180.93 13.082C180.93 13.082 182.2 15.4943 181.339 17.4635C181.339 17.4635 181.561 14.443 180.657 13.2673L179.476 14.1911C179.476 14.1911 180.671 16.5715 179.943 18.2048C179.943 18.2048 179.848 14.6892 179.22 14.4228C179.22 14.4228 178.189 15.3379 178.033 15.7143C178.033 15.7143 178.848 17.4519 178.342 18.3525C178.342 18.3525 178.03 16.0097 177.766 15.9981C177.766 15.9981 176.737 17.5504 176.631 18.6045C176.681 17.6217 176.985 16.6693 177.515 15.8418C176.922 15.9545 176.376 16.2394 175.943 16.6613C175.943 16.6613 176.101 15.5638 177.768 15.4682C177.768 15.4682 178.632 14.2895 178.845 14.2172C178.845 14.2172 177.187 14.0781 176.182 14.527C176.182 14.527 177.066 13.4932 179.151 13.9478L180.303 12.9922C180.303 12.9922 178.12 12.7026 177.192 13.024C177.192 13.024 178.258 12.1089 180.617 12.775L181.884 12.0134C181.884 12.0134 180.023 11.6079 178.915 11.7556C178.915 11.7556 180.084 11.1214 182.255 11.8077L183.162 11.3994C183.162 11.3994 181.797 11.1301 181.4 11.0867C181.002 11.0432 180.979 10.9332 180.979 10.9332C181.843 10.7886 182.73 10.8889 183.54 11.2228C183.54 11.2228 185.483 10.5191 185.443 10.3974Z" fill="#286CBC"/>
<path opacity="0.1" d="M218.693 49.0117C218.693 49.0117 207.75 48.3485 209.029 56.069C209.029 56.069 208.772 57.433 210.002 58.0528C210.002 58.0528 210.022 57.4736 211.128 57.6734C211.521 57.7399 211.92 57.7593 212.317 57.7313C212.85 57.6925 213.355 57.4811 213.757 57.129C213.757 57.129 216.839 55.849 218.037 50.7869C218.037 50.7869 218.921 49.6835 218.886 49.3997L217.037 50.1932C217.037 50.1932 217.668 51.534 217.173 52.649C217.173 52.649 217.112 50.2425 216.758 50.2975C216.686 50.2975 215.796 50.7637 215.796 50.7637C215.796 50.7637 216.885 53.1007 216.064 54.7977C216.064 54.7977 216.375 51.9192 215.456 50.9317L214.169 51.6875C214.169 51.6875 215.439 54.0998 214.578 56.069C214.578 56.069 214.8 53.0486 213.896 51.8729L212.718 52.7995C212.718 52.7995 213.91 55.1771 213.184 56.8104C213.184 56.8104 213.089 53.2948 212.461 53.0283C212.461 53.0283 211.43 53.9434 211.272 54.3199C211.272 54.3199 212.09 56.0575 211.583 56.9581C211.583 56.9581 211.272 54.6153 211.007 54.6037C211.007 54.6037 209.979 56.1559 209.873 57.21C209.924 56.2272 210.23 55.2749 210.759 54.4473C210.166 54.5603 209.619 54.8452 209.184 55.2669C209.184 55.2669 209.345 54.1693 211.013 54.0738C211.013 54.0738 211.862 52.8951 212.09 52.8227C212.09 52.8227 210.431 52.6837 209.426 53.1326C209.426 53.1326 210.31 52.0987 212.392 52.5679L213.544 51.6122C213.544 51.6122 211.358 51.3226 210.434 51.6441C210.434 51.6441 211.5 50.729 213.858 51.395L215.125 50.6334C215.125 50.6334 213.262 50.2309 212.153 50.3757C212.153 50.3757 213.325 49.7415 215.497 50.4278L216.404 50.0195C216.404 50.0195 215.039 49.7501 214.639 49.7067C214.238 49.6633 214.218 49.5532 214.218 49.5532C215.083 49.4086 215.97 49.5089 216.781 49.8428C216.781 49.8428 218.728 49.1333 218.693 49.0117Z" fill="#286CBC"/>
<path opacity="0.1" d="M152.212 42.157C152.212 42.157 154.732 31.4161 146.945 31.3784C146.945 31.3784 145.652 30.8919 144.837 32.0039C144.837 32.0039 145.393 32.1227 145.016 33.1826C144.885 33.5574 144.798 33.9461 144.756 34.3409C144.701 34.8792 144.821 35.4211 145.099 35.8845C145.099 35.8845 145.828 39.1569 150.571 41.2072C150.571 41.2072 151.504 42.2729 151.786 42.2844L151.325 40.3181C151.325 40.3181 149.903 40.7149 148.895 40.0285C148.895 40.0285 151.265 40.3789 151.268 40.0285C151.268 39.9561 150.98 38.9976 150.98 38.9976C150.98 38.9976 148.506 39.6752 146.98 38.5719C146.98 38.5719 149.747 39.3712 150.873 38.6327L150.355 37.2079C150.355 37.2079 147.763 38.0564 145.989 36.8662C145.989 36.8662 148.912 37.6017 150.219 36.9067L149.514 35.5804C149.514 35.5804 146.98 36.3565 145.502 35.3574C145.502 35.3574 148.958 35.8613 149.333 35.2879C149.333 35.2879 148.613 34.1093 148.27 33.8892C148.27 33.8892 146.438 34.4047 145.632 33.7473C145.632 33.7473 147.979 33.837 148.034 33.588C148.034 33.588 146.689 32.3051 145.664 32.0155C146.619 32.2343 147.501 32.6993 148.224 33.365C148.213 32.7581 148.027 32.1674 147.688 31.6651C147.688 31.6651 148.736 32.0126 148.552 33.6923C148.552 33.6923 149.56 34.7348 149.592 34.9722C149.592 34.9722 150.009 33.3534 149.741 32.279C149.741 32.279 150.605 33.3332 149.79 35.3169L150.528 36.6345C150.528 36.6345 151.196 34.5205 151.026 33.5475C151.026 33.5475 151.743 34.758 150.686 36.982L151.219 38.3692C151.219 38.3692 151.93 36.5911 151.976 35.4732C151.976 35.4732 152.4 36.7417 151.354 38.7775L151.602 39.7447C151.602 39.7447 152.097 38.4387 152.207 38.0506C152.316 37.6626 152.428 37.6597 152.428 37.6597C152.424 38.5407 152.176 39.4031 151.711 40.1502C151.711 40.1502 152.088 42.1715 152.212 42.157Z" fill="#286CBC"/>
<path opacity="0.1" d="M128.247 45.8174C128.247 45.8174 119.458 39.206 116.316 46.3677C116.316 46.3677 115.357 47.3667 116.045 48.5628C116.045 48.5628 116.373 48.0965 117.197 48.8697C117.489 49.1426 117.812 49.3798 118.159 49.5763C118.629 49.8397 119.172 49.9414 119.705 49.8659C119.705 49.8659 122.977 50.5001 126.744 46.9352C126.744 46.9352 128.088 46.5009 128.215 46.246L126.231 45.8956C126.231 45.8956 126.024 47.3638 125.001 48.0212C125.001 48.0212 126.265 45.9767 125.937 45.829C125.871 45.7972 124.88 45.6842 124.88 45.6842C124.88 45.6842 124.512 48.2384 122.899 49.2028C122.899 49.2028 124.733 46.97 124.506 45.6379L123 45.5568C123 45.5568 122.743 48.2761 120.946 49.446C120.946 49.446 122.781 47.0453 122.674 45.5626L121.183 45.6842C121.183 45.6842 120.88 48.3282 119.38 49.2896C119.38 49.2896 121.22 46.301 120.843 45.7334C120.843 45.7334 119.481 45.9275 119.144 46.1534C119.144 46.1534 118.882 48.0473 117.96 48.528C117.96 48.528 118.982 46.3995 118.775 46.2518C118.775 46.2518 117.067 46.9787 116.396 47.8069C116.977 47.0139 117.753 46.387 118.648 45.9883C118.091 45.7555 117.479 45.6911 116.886 45.8029C116.886 45.8029 117.617 44.9747 119.063 45.8174C119.063 45.8174 120.417 45.3048 120.647 45.3686C120.647 45.3686 119.337 44.3347 118.251 44.1552C118.251 44.1552 119.558 43.7787 121.041 45.3135L122.536 45.16C122.536 45.16 120.874 43.7121 119.921 43.4688C119.921 43.4688 121.312 43.2922 122.916 45.1514L124.391 45.218C124.391 45.218 123.057 43.8511 122.052 43.3588C122.052 43.3588 123.374 43.4746 124.814 45.2498L125.796 45.4091C125.796 45.4091 124.803 44.4303 124.491 44.1754C124.18 43.9206 124.224 43.8134 124.224 43.8134C125.025 44.1702 125.712 44.7437 126.208 45.4699C126.208 45.4699 128.209 45.9362 128.247 45.8174Z" fill="#286CBC"/>
<path opacity="0.1" d="M263.658 78.4748C263.658 78.4748 252.749 77.2527 253.651 85.0311C253.651 85.0311 253.325 86.3806 254.515 87.0583C254.515 87.0583 254.563 86.4791 255.666 86.7368C256.056 86.824 256.454 86.8639 256.853 86.8556C257.392 86.8473 257.913 86.661 258.336 86.3256C258.336 86.3256 261.478 85.2049 262.929 80.2123C262.929 80.2123 263.868 79.1524 263.848 78.8686L261.962 79.5665C261.962 79.5665 262.538 80.9392 261.962 82.0281C261.962 82.0281 262.022 79.6187 261.674 79.6592C261.602 79.6592 260.692 80.0733 260.692 80.0733C260.692 80.0733 261.659 82.4624 260.755 84.1276C260.755 84.1276 261.21 81.2693 260.343 80.2355L259.004 80.9334C259.004 80.9334 260.156 83.4094 259.194 85.3323C259.194 85.3323 259.566 82.3263 258.722 81.1043L257.498 81.973C257.498 81.973 258.569 84.4085 257.76 86.0013C257.76 86.0013 257.844 82.4856 257.23 82.1902C257.23 82.1902 256.156 83.059 255.977 83.4181C255.977 83.4181 256.709 85.1846 256.156 86.0679C256.156 86.0679 255.963 83.7135 255.71 83.6903C255.71 83.6903 254.604 85.1875 254.443 86.2445C254.542 85.2645 254.896 84.328 255.468 83.5282C254.87 83.6097 254.309 83.8665 253.855 84.2666C253.855 84.2666 254.068 83.1777 255.738 83.1662C255.738 83.1662 256.648 82.0339 256.89 81.9759C256.89 81.9759 255.24 81.7501 254.212 82.1468C254.212 82.1468 255.148 81.1593 257.207 81.7356L258.417 80.8407C258.417 80.8407 256.251 80.4295 255.309 80.7133C255.309 80.7133 256.421 79.8445 258.742 80.638L260.047 79.943C260.047 79.943 258.206 79.4449 257.092 79.5347C257.092 79.5347 258.293 78.9555 260.427 79.7577L261.354 79.3928C261.354 79.3928 260.003 79.054 259.606 78.9931C259.209 78.9323 259.194 78.8194 259.194 78.8194C260.065 78.7171 260.946 78.8605 261.74 79.2335C261.74 79.2335 263.687 78.5993 263.658 78.4748Z" fill="#286CBC"/>
<path opacity="0.1" d="M310.06 68.0695C310.06 68.0695 299.152 66.8503 300.053 74.6258C300.053 74.6258 299.73 75.9753 300.917 76.653C300.917 76.653 300.966 76.0738 302.069 76.3344C302.457 76.4195 302.855 76.4584 303.252 76.4503C303.788 76.4392 304.307 76.2544 304.73 75.9232C304.73 75.9232 307.869 74.8025 309.32 69.807C309.32 69.807 310.262 68.75 310.239 68.4633L308.353 69.1612C308.353 69.1612 308.928 70.5339 308.353 71.6228C308.353 71.6228 308.413 69.2163 308.065 69.2539C307.993 69.2539 307.083 69.668 307.083 69.668C307.083 69.668 308.05 72.0572 307.146 73.7223C307.146 73.7223 307.601 70.864 306.734 69.8331L305.395 70.5281C305.395 70.5281 306.547 73.0041 305.585 74.927C305.585 74.927 305.957 71.9211 305.113 70.7019L303.889 71.5706C303.889 71.5706 304.96 74.0061 304.154 75.6018C304.154 75.6018 304.234 72.0832 303.621 71.7878C303.621 71.7878 302.547 72.6566 302.368 73.0157C302.368 73.0157 303.1 74.7822 302.547 75.6655C302.547 75.6655 302.354 73.3111 302.1 73.2879C302.1 73.2879 300.995 74.7851 300.836 75.8421C300.936 74.8626 301.288 73.9262 301.859 73.1258C301.261 73.2088 300.701 73.4655 300.246 73.8642C300.246 73.8642 300.462 72.7754 302.132 72.7667C302.132 72.7667 303.039 71.6344 303.284 71.5735C303.284 71.5735 301.634 71.3506 300.606 71.7473C300.606 71.7473 301.542 70.7569 303.601 71.3332L304.81 70.4383C304.81 70.4383 302.645 70.0271 301.703 70.3109C301.703 70.3109 302.815 69.4421 305.136 70.2385L306.44 69.5406C306.44 69.5406 304.6 69.0425 303.486 69.1323C303.486 69.1323 304.687 68.5531 306.82 69.3553L307.748 68.9933C307.748 68.9933 306.397 68.6545 306.003 68.5907C305.608 68.527 305.588 68.417 305.588 68.417C306.459 68.3165 307.34 68.4609 308.134 68.834C308.134 68.834 310.089 68.194 310.06 68.0695Z" fill="#286CBC"/>
<path opacity="0.1" d="M250.1 50.1497C250.1 50.1497 247.07 39.542 240.257 43.3501C240.257 43.3501 238.892 43.5615 238.722 44.9342C238.722 44.9342 239.263 44.7633 239.451 45.8724C239.52 46.2709 239.636 46.6597 239.796 47.0308C240.01 47.5298 240.38 47.9448 240.85 48.2123C240.85 48.2123 243.079 50.7028 248.222 50.1468C248.222 50.1468 249.553 50.616 249.806 50.4885L248.444 49C248.444 49 247.399 50.0484 246.189 49.9499C246.189 49.9499 248.424 49.0811 248.251 48.7713C248.217 48.7075 247.497 48.0154 247.497 48.0154C247.497 48.0154 245.671 49.8283 243.805 49.6169C243.805 49.6169 246.607 48.9508 247.223 47.7519L246.071 46.7731C246.071 46.7731 244.234 48.7828 242.1 48.6265C242.1 48.6265 245.003 47.8243 245.803 46.5762L244.542 45.7682C244.542 45.7682 242.713 47.694 240.939 47.5492C240.939 47.5492 244.202 46.2837 244.243 45.6031C244.243 45.6031 243.039 44.9313 242.633 44.9081C242.633 44.9081 241.288 46.2576 240.265 46.0838C240.265 46.0838 242.356 45.0037 242.281 44.7604C242.281 44.7604 240.484 44.3058 239.451 44.5577C240.387 44.2785 241.379 44.2495 242.33 44.4737C242.026 43.9497 241.575 43.5269 241.034 43.2574C241.034 43.2574 242.117 43.0402 242.762 44.5895C242.762 44.5895 244.147 45.0008 244.291 45.1919C244.291 45.1919 243.868 43.5731 243.111 42.7709C243.111 42.7709 244.378 43.2632 244.634 45.3946L245.919 46.1794C245.919 46.1794 245.469 44.0075 244.847 43.2429C244.847 43.2429 246.063 43.9467 246.227 46.4024L247.379 47.3494C247.379 47.3494 247.134 45.4496 246.627 44.4534C246.627 44.4534 247.615 45.3512 247.695 47.639L248.381 48.3629C248.381 48.3629 248.179 46.9787 248.093 46.5848C248.006 46.191 248.093 46.136 248.093 46.136C248.519 46.9063 248.723 47.7807 248.683 48.6612C248.683 48.6612 249.996 50.2192 250.1 50.1497Z" fill="#286CBC"/>
<path opacity="0.1" d="M182.591 74.0527C182.591 74.0527 176.708 64.7336 171.245 70.3112C171.245 70.3112 169.995 70.8903 170.214 72.2659C170.214 72.2659 170.689 71.9473 171.179 72.9609C171.355 73.3201 171.573 73.6566 171.83 73.9629C172.173 74.381 172.643 74.6741 173.169 74.7969C173.169 74.7969 176.005 76.5576 180.786 74.5653C180.786 74.5653 182.194 74.6405 182.401 74.4465L180.673 73.404C180.673 73.404 179.962 74.7072 178.773 74.9533C178.773 74.9533 180.679 73.5054 180.423 73.2389C180.374 73.1868 179.487 72.7292 179.487 72.7292C179.487 72.7292 178.24 74.9823 176.391 75.3095C176.391 75.3095 178.894 73.876 179.153 72.5497L177.773 71.9387C177.773 71.9387 176.573 74.3857 174.482 74.8346C174.482 74.8346 177.045 73.2447 177.462 71.8199L176.023 71.4029C176.023 71.4029 174.807 73.7689 173.065 74.1309C173.065 74.1309 175.841 71.9937 175.688 71.3276C175.688 71.3276 174.346 71.0235 173.961 71.1162C173.961 71.1162 173.048 72.7929 172.017 72.9146C172.017 72.9146 173.722 71.2871 173.58 71.0728C173.58 71.0728 171.729 71.1452 170.807 71.6809C171.629 71.1454 172.576 70.8359 173.555 70.7832C173.117 70.3664 172.567 70.0876 171.974 69.981C171.974 69.981 172.95 69.4684 173.989 70.7716C173.989 70.7716 175.429 70.7716 175.628 70.9164C175.628 70.9164 174.764 69.4684 173.817 68.9269C173.817 68.9269 175.17 69.0427 176.011 71.0149L177.465 71.4029C177.465 71.4029 176.426 69.4482 175.616 68.8893C175.616 68.8893 176.979 69.2194 177.822 71.5332L179.182 72.1124C179.182 72.1124 178.416 70.3604 177.647 69.5408C177.647 69.5408 178.845 70.12 179.562 72.2949L180.426 72.7959C180.426 72.7959 179.85 71.5245 179.645 71.1741C179.441 70.8237 179.521 70.7426 179.521 70.7426C180.145 71.3616 180.584 72.1427 180.791 72.9986C180.791 72.9986 182.514 74.1511 182.591 74.0527Z" fill="#286CBC"/>
<path d="M221.258 26.438C221.258 26.438 215.663 16.9422 210.027 22.346C210.027 22.346 208.76 22.8962 208.938 24.2689C208.938 24.2689 209.419 23.9619 209.88 24.99C210.045 25.3554 210.253 25.6996 210.499 26.0152C210.83 26.4422 211.292 26.7476 211.812 26.8839C211.812 26.8839 214.591 28.7315 219.432 26.8839C219.432 26.8839 220.838 27.0027 221.051 26.8144L219.36 25.7198C219.36 25.7198 218.612 26.9969 217.414 27.2083C217.414 27.2083 219.363 25.8095 219.118 25.546C219.067 25.491 218.197 25.0045 218.197 25.0045C218.197 25.0045 216.881 27.2199 215.029 27.4892C215.029 27.4892 217.575 26.1339 217.872 24.8191L216.512 24.1762C216.512 24.1762 215.237 26.5885 213.131 26.9737C213.131 26.9737 215.743 25.4649 216.204 24.0546L214.782 23.5913C214.782 23.5913 213.491 25.908 211.74 26.2266C211.74 26.2266 214.58 24.1762 214.447 23.5073C214.447 23.5073 213.117 23.1598 212.72 23.2409C212.72 23.2409 211.755 24.8886 210.721 24.9784C210.721 24.9784 212.475 23.4088 212.342 23.1887C212.342 23.1887 210.488 23.2032 209.552 23.71C210.39 23.2015 211.346 22.9219 212.325 22.8991C211.899 22.4687 211.358 22.1727 210.767 22.0477C210.767 22.0477 211.761 21.5641 212.783 22.8991C212.783 22.8991 214.223 22.9484 214.416 23.0961C214.416 23.0961 213.601 21.6481 212.668 21.0515C212.668 21.0515 214.015 21.2079 214.796 23.2061L216.236 23.6405C216.236 23.6405 215.26 21.6539 214.465 21.0689C214.465 21.0689 215.818 21.4425 216.59 23.7795L217.929 24.4079C217.929 24.4079 217.218 22.6327 216.489 21.8016C216.489 21.8016 217.667 22.4184 218.321 24.6135L219.165 25.1406C219.165 25.1406 218.623 23.8519 218.433 23.4957C218.243 23.1395 218.324 23.0613 218.324 23.0613C218.927 23.6993 219.343 24.4933 219.525 25.3549C219.525 25.3549 221.175 26.5335 221.258 26.438Z" fill="#286CBC"/>
<path d="M185.857 46.4054C185.857 46.4054 186.145 35.3719 178.522 36.9271C178.522 36.9271 177.157 36.7157 176.581 37.9725C176.581 37.9725 177.157 37.9725 176.996 39.0874C176.943 39.485 176.937 39.8874 176.978 40.2863C177.031 40.8274 177.258 41.3362 177.626 41.7343C177.626 41.7343 179 44.7866 184.071 45.8233C184.071 45.8233 185.197 46.6776 185.48 46.6313L184.616 44.8011C184.616 44.8011 183.305 45.4787 182.179 45.0183C182.179 45.0183 184.57 44.8764 184.503 44.5231C184.503 44.4507 184.008 43.5703 184.008 43.5703C184.008 43.5703 181.722 44.7431 180.008 43.9728C180.008 43.9728 182.888 44.19 183.83 43.2373L183.026 41.9544C183.026 41.9544 180.67 43.3097 178.683 42.5104C178.683 42.5104 181.693 42.632 182.833 41.685L181.874 40.5267C181.874 40.5267 179.55 41.8067 177.903 41.129C177.903 41.129 181.393 40.9176 181.647 40.2776C181.647 40.2776 180.702 39.2727 180.322 39.1193C180.322 39.1193 178.634 39.988 177.713 39.5189C177.713 39.5189 180.017 39.1308 180.031 38.8731C180.031 38.8731 178.456 37.8914 177.393 37.819C178.373 37.8366 179.331 38.1122 180.172 38.6183C180.041 38.0263 179.741 37.4858 179.308 37.0632C179.308 37.0632 180.405 37.1877 180.555 38.8586C180.555 38.8586 181.756 39.6753 181.834 39.9012C181.834 39.9012 181.917 38.2302 181.436 37.234C181.436 37.234 182.496 38.0883 182.099 40.1965L183.087 41.3375C183.087 41.3375 183.311 39.1308 182.951 38.2128C182.951 38.2128 183.896 39.2525 183.314 41.6445L184.112 42.8926C184.112 42.8926 184.452 41.0074 184.27 39.8983C184.27 39.8983 184.938 41.0566 184.328 43.2604L184.765 44.1582C184.765 44.1582 184.987 42.7768 185.016 42.3743C185.045 41.9717 185.154 41.9457 185.154 41.9457C185.328 42.8096 185.259 43.7049 184.956 44.5317C184.956 44.5317 185.73 46.443 185.857 46.4054Z" fill="#286CBC"/>
<path opacity="0.1" d="M341.533 38.0565C341.533 38.0565 330.711 39.8144 333.655 47.0652C333.655 47.0652 333.705 48.4522 335.041 48.7865C335.041 48.7865 334.933 48.2171 336.056 48.169C336.454 48.1475 336.848 48.0787 337.229 47.9641C337.74 47.8093 338.186 47.4921 338.501 47.06C338.501 47.06 341.226 45.1342 341.282 39.9326C341.282 39.9326 341.902 38.6619 341.806 38.3926L340.177 39.573C340.177 39.573 341.087 40.7425 340.849 41.939C340.849 41.939 340.261 39.6046 339.928 39.7361C339.857 39.7519 339.092 40.4023 339.092 40.4023C339.092 40.4023 340.667 42.443 340.239 44.2789C340.239 44.2789 339.91 41.4024 338.797 40.6409L337.707 41.6611C337.707 41.6611 339.476 43.7354 339.069 45.8457C339.069 45.8457 338.622 42.8503 337.481 41.9021L336.536 43.0649C336.536 43.0649 338.221 45.1224 337.872 46.8752C337.872 46.8752 337.007 43.4664 336.336 43.3445C336.336 43.3445 335.531 44.4638 335.46 44.8658C335.46 44.8658 336.639 46.3812 336.343 47.3712C336.343 47.3712 335.524 45.154 335.263 45.2009C335.263 45.2009 334.602 46.9411 334.729 47.9929C334.564 47.0228 334.653 46.0265 334.987 45.1028C334.434 45.3434 333.962 45.7416 333.631 46.2485C333.631 46.2485 333.547 45.1423 335.153 44.6827C335.153 44.6827 335.722 43.3461 335.928 43.2255C335.928 43.2255 334.28 43.4544 333.398 44.1132C333.398 44.1132 334.033 42.9104 336.167 42.9105L337.081 41.725C337.081 41.725 334.885 41.9229 334.054 42.4396C334.054 42.4396 334.892 41.3127 337.34 41.4441L338.408 40.4227C338.408 40.4227 336.502 40.4394 335.452 40.8244C335.452 40.8244 336.457 39.9481 338.726 40.1404L339.521 39.5427C339.521 39.5427 338.13 39.58 337.73 39.6256C337.33 39.6712 337.286 39.5683 337.286 39.5683C338.098 39.2372 338.985 39.14 339.85 39.2875C339.85 39.2875 341.593 38.1675 341.533 38.0565Z" fill="#286CBC"/>
<path opacity="0.1" d="M362.769 0.0142539C362.769 0.0142539 351.825 -0.648913 353.104 7.07161C353.104 7.07161 352.848 8.43559 354.077 9.05531C354.077 9.05531 354.097 8.47613 355.203 8.67595C355.596 8.74242 355.995 8.76186 356.393 8.73386C356.925 8.69506 357.43 8.4837 357.833 8.13151C357.833 8.13151 360.914 6.85152 362.112 1.78945C362.112 1.78945 362.996 0.686106 362.961 0.402306L361.113 1.19578C361.113 1.19578 361.743 2.5366 361.248 3.65153C361.248 3.65153 361.188 1.24502 360.833 1.30004C360.761 1.30004 359.871 1.76628 359.871 1.76628C359.871 1.76628 360.96 4.10329 360.139 5.80029C360.139 5.80029 360.45 2.92176 359.532 1.93425L358.244 2.69008C358.244 2.69008 359.514 5.10238 358.653 7.07161C358.653 7.07161 358.875 4.05117 357.971 2.87542L356.793 3.80211C356.793 3.80211 357.985 6.17966 357.259 7.81296C357.259 7.81296 357.164 4.29732 356.537 4.03089C356.537 4.03089 355.506 4.946 355.347 5.32247C355.347 5.32247 356.165 7.06003 355.658 7.96066C355.658 7.96066 355.347 5.61786 355.082 5.60627C355.082 5.60627 354.054 7.15849 353.948 8.2126C353.999 7.22975 354.305 6.27744 354.835 5.44989C354.241 5.5629 353.694 5.84775 353.259 6.26943C353.259 6.26943 353.421 5.17188 355.088 5.07631C355.088 5.07631 355.938 3.89768 356.165 3.82528C356.165 3.82528 354.506 3.68627 353.501 4.13514C353.501 4.13514 354.385 3.1013 356.468 3.57044L357.619 2.61478C357.619 2.61478 355.434 2.3252 354.509 2.64664C354.509 2.64664 355.575 1.73153 357.933 2.39759L359.2 1.63596C359.2 1.63596 357.337 1.23343 356.228 1.37823C356.228 1.37823 357.401 0.744021 359.572 1.43035L360.479 1.02203C360.479 1.02203 359.114 0.752711 358.714 0.709273C358.313 0.665834 358.293 0.555789 358.293 0.555789C359.158 0.41117 360.045 0.511445 360.856 0.845381C360.856 0.845381 362.803 0.135882 362.769 0.0142539Z" fill="#286CBC"/>
<path opacity="0.1" d="M415.733 33.3316C415.733 33.3316 404.824 32.1095 405.726 39.8879C405.726 39.8879 405.4 41.2374 406.59 41.9151C406.59 41.9151 406.639 41.3359 407.742 41.5936C408.131 41.6808 408.529 41.7207 408.928 41.7124C409.467 41.7041 409.988 41.5179 410.411 41.1824C410.411 41.1824 413.553 40.0617 415.005 35.0691C415.005 35.0691 415.943 34.0092 415.923 33.7254L414.037 34.4233C414.037 34.4233 414.613 35.796 414.037 36.8849C414.037 36.8849 414.097 34.4755 413.749 34.516C413.677 34.516 412.767 34.9301 412.767 34.9301C412.767 34.9301 413.735 37.3193 412.83 38.9844C412.83 38.9844 413.285 36.1261 412.418 35.0923L411.079 35.7902C411.079 35.7902 412.231 38.2662 411.269 40.1891C411.269 40.1891 411.641 37.1831 410.797 35.9611L409.573 36.8298C409.573 36.8298 410.644 39.2653 409.835 40.8581C409.835 40.8581 409.919 37.3424 409.305 37.047C409.305 37.047 408.231 37.9158 408.053 38.2749C408.053 38.2749 408.784 40.0414 408.231 40.9247C408.231 40.9247 408.038 38.5703 407.785 38.5471C407.785 38.5471 406.679 40.0443 406.518 41.1013C406.618 40.1214 406.971 39.1848 407.543 38.385C406.945 38.4665 406.384 38.7234 405.93 39.1234C405.93 39.1234 406.143 38.0346 407.814 38.023C407.814 38.023 408.724 36.8907 408.966 36.8327C408.966 36.8327 407.315 36.6069 406.287 37.0036C406.287 37.0036 407.223 36.0161 409.282 36.5924L410.492 35.6975C410.492 35.6975 408.326 35.2863 407.385 35.5701C407.385 35.5701 408.496 34.7013 410.817 35.4948L412.122 34.7998C412.122 34.7998 410.282 34.3017 409.167 34.3915C409.167 34.3915 410.368 33.8123 412.502 34.6145L413.429 34.2496C413.429 34.2496 412.079 33.9108 411.681 33.85C411.284 33.7891 411.269 33.6762 411.269 33.6762C412.14 33.5739 413.021 33.7173 413.815 34.0903C413.815 34.0903 415.762 33.4561 415.733 33.3316Z" fill="#286CBC"/>
<path opacity="0.1" d="M408.378 11.6248C408.378 11.6248 405.349 1.01706 398.535 4.82519C398.535 4.82519 397.17 5.0366 397 6.40926C397 6.40926 397.541 6.23841 397.729 7.34755C397.798 7.74601 397.914 8.13483 398.074 8.50591C398.288 9.00493 398.658 9.41991 399.128 9.68744C399.128 9.68744 401.357 12.1779 406.5 11.6219C406.5 11.6219 407.831 12.0911 408.084 11.9636L406.722 10.4751C406.722 10.4751 405.677 11.5235 404.467 11.425C404.467 11.425 406.702 10.5562 406.529 10.2464C406.495 10.1826 405.775 9.49052 405.775 9.49052C405.775 9.49052 403.949 11.3034 402.083 11.092C402.083 11.092 404.885 10.4259 405.501 9.22699L404.349 8.24817C404.349 8.24817 402.512 10.2579 400.378 10.1016C400.378 10.1016 403.281 9.29939 404.081 8.05125L402.82 7.24329C402.82 7.24329 400.991 9.16907 399.217 9.02428C399.217 9.02428 402.48 7.75876 402.521 7.07822C402.521 7.07822 401.317 6.40637 400.911 6.3832C400.911 6.3832 399.566 7.7327 398.544 7.55894C398.544 7.55894 400.634 6.47876 400.559 6.23551C400.559 6.23551 398.762 5.78085 397.729 6.0328C398.665 5.75358 399.658 5.72463 400.608 5.94881C400.304 5.42481 399.853 5.00199 399.312 4.73253C399.312 4.73253 400.395 4.51533 401.04 6.06465C401.04 6.06465 402.426 6.47587 402.57 6.667C402.57 6.667 402.146 5.04818 401.389 4.24601C401.389 4.24601 402.656 4.73832 402.912 6.86971L404.197 7.65451C404.197 7.65451 403.747 5.48257 403.125 4.71805C403.125 4.71805 404.341 5.42176 404.505 7.8775L405.657 8.82446C405.657 8.82446 405.412 6.92473 404.905 5.92854C404.905 5.92854 405.893 6.82627 405.973 9.11405L406.659 9.83803C406.659 9.83803 406.457 8.45378 406.371 8.05994C406.284 7.66609 406.371 7.61107 406.371 7.61107C406.797 8.38136 407.001 9.25577 406.961 10.1363C406.961 10.1363 408.274 11.6943 408.378 11.6248Z" fill="#286CBC"/>
<path opacity="0.1" d="M464.157 9.40089C464.157 9.40089 459.26 -0.407832 453.213 4.55976C453.213 4.55976 451.904 5.01978 451.982 6.39458C451.982 6.39458 452.493 6.12244 452.873 7.18004C453.012 7.55344 453.195 7.90891 453.418 8.23901C453.717 8.68046 454.153 9.01235 454.659 9.18483C454.659 9.18483 457.309 11.2134 462.291 9.71986C462.291 9.71986 463.689 9.93384 463.917 9.76201L462.306 8.55762C462.306 8.55762 461.46 9.7742 460.247 9.9027C460.247 9.9027 462.301 8.64707 462.076 8.36782C462.04 8.30547 461.191 7.76796 461.191 7.76796C461.191 7.76796 459.712 9.87919 457.832 10.0169C457.832 10.0169 460.48 8.84698 460.876 7.55764L459.578 6.82075C459.578 6.82075 458.124 9.12675 455.988 9.36566C455.988 9.36566 458.714 8.04747 459.28 6.67649L457.889 6.1198C457.889 6.1198 456.426 8.34109 454.649 8.52925C454.649 8.52925 457.646 6.68913 457.563 6.01223C457.563 6.01223 456.255 5.57693 455.849 5.628C455.849 5.628 454.754 7.20507 453.72 7.21645C453.72 7.21645 455.594 5.7757 455.471 5.54046C455.471 5.54046 453.613 5.42621 452.647 5.86099C453.524 5.41412 454.501 5.20274 455.483 5.24777C455.088 4.79048 454.568 4.45875 453.985 4.29334C453.985 4.29334 455.017 3.88422 455.933 5.28046C455.933 5.28046 457.378 5.42688 457.555 5.5877C457.555 5.5877 456.846 4.08166 455.955 3.4357C455.955 3.4357 457.292 3.68443 457.927 5.72215L459.33 6.24191C459.33 6.24191 458.488 4.20419 457.748 3.56434C457.748 3.56434 459.073 4.02955 459.675 6.40515L460.969 7.1217C460.969 7.1217 460.386 5.30682 459.706 4.41904C459.706 4.41904 460.841 5.11698 461.332 7.34061L462.14 7.92206C462.14 7.92206 461.69 6.60525 461.528 6.23687C461.365 5.86849 461.45 5.796 461.45 5.796C462.008 6.47238 462.365 7.2911 462.481 8.16045C462.481 8.16045 464.069 9.49164 464.157 9.40089Z" fill="#286CBC"/>
<path d="M320.313 16.6142C320.313 16.6142 312.767 8.58034 308.457 15.0906C308.457 15.0906 307.342 15.9058 307.818 17.2057C307.818 17.2057 308.219 16.8005 308.895 17.7022C309.136 18.0225 309.414 18.3126 309.724 18.5662C310.14 18.9101 310.658 19.1066 311.196 19.1251C311.196 19.1251 314.313 20.3168 318.63 17.4506C318.63 17.4506 320.027 17.2575 320.193 17.0271L318.304 16.3307C318.304 16.3307 317.854 17.7411 316.732 18.2106C316.732 18.2106 318.326 16.4176 318.029 16.2143C317.967 16.172 317.011 15.8886 317.011 15.8886C317.011 15.8886 316.214 18.339 314.467 19.0087C314.467 19.0087 316.653 17.1271 316.653 15.7793L315.186 15.4508C315.186 15.4508 314.471 18.0845 312.502 18.9229C312.502 18.9229 314.719 16.877 314.859 15.3999L313.369 15.2605C313.369 15.2605 312.619 17.8041 310.981 18.4997C310.981 18.4997 313.301 15.8755 313.025 15.252C313.025 15.252 311.65 15.2053 311.28 15.3718C311.28 15.3718 310.701 17.1913 309.712 17.5061C309.712 17.5061 311.078 15.5894 310.901 15.4038C310.901 15.4038 309.095 15.8255 308.293 16.5256C308.999 15.8452 309.87 15.3625 310.82 15.1251C310.31 14.7987 309.717 14.629 309.113 14.6369C309.113 14.6369 309.976 13.9468 311.267 15.0245C311.267 15.0245 312.683 14.7561 312.903 14.8578C312.903 14.8578 311.79 13.6243 310.749 13.2474C310.749 13.2474 312.098 13.1037 313.298 14.8816L314.798 14.9889C314.798 14.9889 313.41 13.2654 312.506 12.8694C312.506 12.8694 313.908 12.9364 315.175 15.0467L316.619 15.3654C316.619 15.3654 315.535 13.79 314.642 13.1393C314.642 13.1393 315.926 13.4822 317.046 15.4799L317.985 15.8087C317.985 15.8087 317.174 14.6705 316.91 14.3648C316.647 14.059 316.708 13.965 316.708 13.965C317.437 14.4548 318.017 15.138 318.384 15.9386C318.384 15.9386 320.252 16.7258 320.313 16.6142Z" fill="#286CBC"/>
<path d="M290.165 43.8733C290.165 43.8733 288.021 33.0463 280.927 36.2386C280.927 36.2386 279.548 36.3324 279.263 37.6851C279.263 37.6851 279.825 37.5585 279.912 38.6816C279.948 39.081 280.031 39.4749 280.159 39.855C280.329 40.3714 280.663 40.8178 281.109 41.1252C281.109 41.1252 283.12 43.801 288.295 43.6979C288.295 43.6979 289.582 44.2838 289.847 44.1766L288.602 42.581C288.602 42.581 287.472 43.53 286.273 43.3283C286.273 43.3283 288.573 42.6646 288.431 42.3345C288.415 42.2638 287.738 41.5138 287.738 41.5138C287.738 41.5138 285.765 43.1605 283.925 42.7856C283.925 42.7856 286.782 42.3646 287.491 41.2282L286.425 40.1532C286.425 40.1532 284.425 41.9931 282.311 41.65C282.311 41.65 285.273 41.1073 286.178 39.9329L284.988 39.0136C284.988 39.0136 283.002 40.773 281.246 40.474C281.246 40.474 284.605 39.5007 284.711 38.8206C284.711 38.8206 283.569 38.0479 283.164 37.9817C283.164 37.9817 281.709 39.2001 280.707 38.945C280.707 38.945 282.869 38.0601 282.826 37.8055C282.826 37.8055 281.074 37.194 280.021 37.3569C280.981 37.1587 281.976 37.217 282.908 37.5259C282.65 36.9773 282.238 36.516 281.723 36.1986C281.723 36.1986 282.821 36.079 283.334 37.6762C283.334 37.6762 284.685 38.209 284.811 38.4122C284.811 38.4122 284.525 36.7638 283.837 35.8976C283.837 35.8976 285.059 36.4982 285.134 38.6422L286.349 39.5382C286.349 39.5382 286.083 37.3361 285.53 36.5196C285.53 36.5196 286.68 37.3263 286.638 39.7877L287.691 40.83C287.691 40.83 287.608 38.9162 287.187 37.874C287.187 37.874 288.093 38.8572 287.982 41.1413L288.606 41.9209C288.606 41.9209 288.519 40.5246 288.459 40.1256C288.398 39.7265 288.5 39.6771 288.5 39.6771C288.858 40.4817 288.988 41.3703 288.874 42.2436C288.874 42.2436 290.05 43.9379 290.165 43.8733Z" fill="#286CBC"/>
<path opacity="0.1" d="M198.459 186.603C202.742 186.603 206.215 186.013 206.215 185.285C206.215 184.557 202.742 183.967 198.459 183.967C194.176 183.967 190.704 184.557 190.704 185.285C190.704 186.013 194.176 186.603 198.459 186.603Z" fill="#286CBC"/>
<path opacity="0.1" d="M23.9919 196.359C28.275 196.359 31.7472 195.769 31.7472 195.041C31.7472 194.314 28.275 193.724 23.9919 193.724C19.7087 193.724 16.2366 194.314 16.2366 195.041C16.2366 195.769 19.7087 196.359 23.9919 196.359Z" fill="#286CBC"/>
<path d="M237.086 189.223C243.482 189.223 248.666 188.342 248.666 187.254C248.666 186.167 243.482 185.285 237.086 185.285C230.691 185.285 225.507 186.167 225.507 187.254C225.507 188.342 230.691 189.223 237.086 189.223Z" fill="#286CBC"/>
<path d="M241.886 184.031C242.415 183.599 242.8 183.015 242.989 182.357C243.133 181.691 242.851 180.895 242.22 180.651C241.512 180.379 240.755 180.872 240.179 181.37C239.603 181.868 238.949 182.438 238.197 182.334C238.583 181.981 238.872 181.535 239.035 181.037C239.199 180.539 239.231 180.007 239.13 179.493C239.098 179.28 239.008 179.08 238.871 178.914C238.477 178.491 237.765 178.674 237.293 179.007C235.795 180.066 235.378 182.111 235.369 183.953C235.22 183.29 235.346 182.597 235.343 181.926C235.34 181.254 235.153 180.478 234.58 180.124C234.228 179.927 233.831 179.827 233.428 179.835C232.754 179.812 232.003 179.878 231.545 180.373C230.969 180.987 231.122 182.021 231.617 182.69C232.112 183.359 232.87 183.791 233.567 184.26C234.124 184.595 234.601 185.051 234.96 185.595C235.001 185.671 235.035 185.75 235.061 185.832H239.283C240.228 185.354 241.104 184.748 241.886 184.031Z" fill="#286CBC"/>
<path d="M18.7852 188.916C18.7852 188.916 23.2057 188.78 24.5448 187.825C25.8839 186.869 31.3498 185.731 31.6809 187.263C32.0121 188.795 38.3275 194.876 33.3339 194.917C28.3404 194.957 21.7312 194.135 20.4007 193.318C19.0703 192.502 18.7852 188.916 18.7852 188.916Z" fill="#A8A8A8"/>
<path opacity="0.2" d="M33.4175 194.384C28.4239 194.424 21.8147 193.602 20.4842 192.785C19.4706 192.166 19.0674 189.939 18.932 188.911H18.7852C18.7852 188.911 19.0731 192.499 20.395 193.312C21.7168 194.126 28.3346 194.952 33.3282 194.911C34.7681 194.911 35.2663 194.384 35.2404 193.619C35.0388 194.086 34.4887 194.375 33.4175 194.384Z" fill="black"/>
<defs>
<linearGradient id="paint0_linear" x1="61.3862" y1="103.365" x2="151.274" y2="103.365" gradientUnits="userSpaceOnUse">
<stop stop-color="#808080" stop-opacity="0.25"/>
<stop offset="0.54" stop-color="#808080" stop-opacity="0.12"/>
<stop offset="1" stop-color="#808080" stop-opacity="0.1"/>
</linearGradient>
</defs>
</svg>
